<svg width="360" height="241" viewBox="0 0 360 241" fill="none" xmlns="http://www.w3.org/2000/svg">
<g style="mix-blend-mode:multiply">
<rect width="360" height="241" fill="#17B978"/>
<g style="mix-blend-mode:overlay" opacity="0.5" clip-path="url(#clip0_27_99)">
<g opacity="0.504511">
<path fill-rule="evenodd" clip-rule="evenodd" d="M312.024 177.764C316.21 202.099 214.71 217.971 127.346 206.894C39.983 195.817 -0.0950805 152.56 41.5932 129.511C83.2813 106.462 307.839 153.43 312.024 177.764Z" fill="#071A52"/>
</g>
<path fill-rule="evenodd" clip-rule="evenodd" d="M186.464 76.3619C188.043 75.4234 190.493 76.0213 192.083 76.5753C192.696 76.7888 194.261 77.472 195.422 78.2409C195.269 77.7081 195.132 77.1704 195.012 76.6284C194.522 74.4 194.183 72.129 194.021 69.8715C193.978 69.2824 194.033 68.6247 194.089 67.9581V67.957C194.108 67.7315 194.127 67.505 194.143 67.2798C194.079 67.2267 194.036 67.1531 194.018 67.0536C194.011 67.095 194.007 67.128 194.005 67.1534C194 67.1945 193.997 67.215 193.989 67.2165C193.98 67.2182 193.966 67.2009 193.936 67.1658C193.925 67.1524 193.912 67.1361 193.895 67.1173C192.72 65.7512 191.733 64.2113 191.598 62.5188C191.483 61.0836 193 58.3677 195.15 60.2478C196.112 61.0875 195.862 66.9846 194.417 67.3457C194.803 69.2998 195.288 71.2507 195.896 73.1765C195.988 73.1641 196.08 73.1631 196.172 73.1726C196.163 72.694 196.162 72.1715 196.188 71.9916C196.404 70.4439 198.067 67.3018 200.714 67.9117C202.747 68.3808 201.501 70.3108 200.808 71.1555C199.694 72.5156 198.434 73.1043 196.838 73.8116C196.806 74.104 196.564 74.2739 196.278 74.3291C197.346 77.4394 198.75 80.4729 200.588 83.3386L200.637 83.1563C200.87 82.2865 201.142 81.2726 201.314 81.0595C202.215 79.9448 204.209 78.5832 206.047 79.2428C209.908 80.6301 205.717 84.6169 202.43 85.0506C202.293 85.1975 202.149 85.3157 201.995 85.3834C202.634 86.2482 203.316 87.0953 204.047 87.9205C205.142 89.1617 206.32 90.3986 207.554 91.6287C207.592 90.6665 208.08 88.5223 208.219 88.2919C209.062 86.8928 211.491 85.4531 213.462 86.4471C215.679 87.5679 213.669 89.6852 212.405 90.6435C211.886 91.0365 209.323 92.4766 208.419 92.483C211.401 95.3833 214.692 98.2338 218.039 100.982C217.761 99.7514 217.399 96.3643 217.44 95.9883C217.647 94.0477 219.287 90.9437 222.518 91.7002C225.652 92.4327 224.265 95.657 223.192 97.1941C222.542 98.1244 221.644 99.0696 220.56 99.7185C220.365 99.8353 220.11 99.9309 219.855 100.026C219.548 100.141 219.242 100.256 219.042 100.407C218.863 100.543 218.808 100.698 218.754 100.852C218.697 101.014 218.64 101.176 218.439 101.31C220.247 102.789 222.068 104.236 223.863 105.644C224.71 106.308 225.573 106.959 226.444 107.603C226.92 107.449 227.6 107.651 227.564 108.176C227.559 108.252 227.536 108.318 227.506 108.378C228.166 108.856 228.83 109.33 229.499 109.799C229.484 109.663 229.488 109.47 229.519 109.204C229.037 109.737 229.057 108.96 229.073 108.368C229.078 108.159 229.083 107.973 229.065 107.875C228.994 107.495 228.903 107.118 228.811 106.742C228.616 105.938 228.421 105.138 228.43 104.308C228.451 102.548 229.884 99.5967 232.901 100.645C235.674 101.607 234.665 104.216 233.619 105.852C232.956 106.887 232.05 107.811 231.103 108.696C230.934 108.854 230.747 109.068 230.561 109.28C230.286 109.594 230.014 109.904 229.813 110.019C232.388 111.815 235.024 113.557 237.66 115.3L237.661 115.301C238.841 116.081 240.021 116.862 241.196 117.647C241.248 117.475 241.29 117.304 241.326 117.144C241.253 117.209 241.152 117.239 241.024 117.233C240.99 117.101 240.941 116.925 240.881 116.714C240.155 114.14 237.945 106.298 243.93 107.818C248.316 108.934 245.22 115.762 241.949 118.151C243.935 119.484 245.9 120.835 247.82 122.226C249.21 123.233 250.558 124.273 251.855 125.349C251.184 123.956 250.552 122.153 250.967 120.718C251.571 118.63 254.403 116.659 257.167 117.847C260.613 119.334 257.962 121.366 255.476 123.272C254.206 124.244 252.98 125.184 252.63 126.002C256.753 129.53 260.273 133.45 262.625 137.915C265.183 142.771 267.558 149.296 266.244 154.728C266.487 152.339 265.45 149.34 264.721 147.234C264.622 146.947 264.529 146.677 264.445 146.427C263.351 143.16 261.796 139.981 259.748 137.006C256.466 132.241 252.131 128.196 247.127 124.523C245.987 124.832 244.749 125.404 243.724 125.878C243.096 126.169 242.547 126.423 242.15 126.556C240.235 127.199 236.558 128.12 235.339 126.095C234.139 124.104 237.201 122.991 239.098 122.544C240.932 122.114 242.585 122.166 244.295 122.519C241.646 120.691 238.933 118.921 236.22 117.152L236.22 117.152C235.72 116.826 235.222 116.501 234.723 116.175C234.033 116.615 233.272 117.251 232.463 117.926C229.896 120.07 226.855 122.61 224.14 120.535C220.041 117.404 227.88 114.221 231.219 114.47C231.629 114.5 232.026 114.567 232.413 114.659C229.007 112.409 225.654 110.112 222.483 107.655C221.914 107.736 221.008 108.387 219.92 109.17C217.474 110.93 214.107 113.352 211.571 111.445C209.74 110.068 210.367 107.924 212.136 106.698C213.913 105.466 216.489 105.469 218.678 105.883C219.625 106.062 220.498 106.402 221.311 106.817C221.346 106.818 221.379 106.82 221.413 106.821C218.292 104.377 215.153 101.878 212.129 99.294C212.076 99.3071 212.022 99.3209 211.968 99.3347C211.785 99.5089 211.479 99.5726 211.199 99.534C211.044 99.5755 210.886 99.618 210.725 99.6611C208.33 100.304 205.252 101.131 202.864 100.775C201.107 100.512 199.513 99.4006 201.001 98.032C202.209 96.919 205.49 97.0787 207.09 97.3424C207.87 97.4712 208.72 97.8444 209.573 98.2189C209.931 98.3761 210.29 98.5336 210.644 98.6735C210.736 98.529 210.897 98.4363 211.08 98.3917C208.094 95.7947 205.245 93.1081 202.661 90.3047C201.879 90.3989 201.011 90.6665 200.116 90.9423C197.963 91.6061 195.652 92.3183 193.994 90.7841C191.546 88.5191 196.15 87.1969 198.339 87.4122C199.078 87.4847 199.807 87.6476 200.51 87.8632C198.63 85.555 197.194 83.088 196.185 80.4967C196.175 80.5005 196.166 80.5044 196.157 80.5083V80.5087C196.143 80.5147 196.128 80.5211 196.111 80.5271C196.126 80.5204 196.14 80.514 196.153 80.5073C196.163 80.5023 196.172 80.4974 196.183 80.4924C196.082 80.2333 195.986 79.9731 195.894 79.7115C195.723 79.6375 195.563 79.583 195.487 79.5607C196.481 80.0941 192.286 80.3554 191.5 80.4043C189.763 80.5122 187.436 80.5526 186.162 79.4449C185.091 78.5146 185.154 77.1403 186.464 76.3619ZM266.431 154.736C266.357 155.523 266.174 156.244 265.833 156.838C266.089 156.162 266.285 155.458 266.431 154.736Z" fill="#071A52"/>
<path opacity="0.2" fill-rule="evenodd" clip-rule="evenodd" d="M107.598 26.0847C106.445 25.4066 104.656 25.8398 103.495 26.2408C103.047 26.3954 101.904 26.8899 101.056 27.4462C101.168 27.0607 101.269 26.672 101.356 26.28C101.716 24.6684 101.964 23.0263 102.084 21.3937C102.115 20.9679 102.075 20.4922 102.034 20.0103V20.0099C102.02 19.8467 102.007 19.6829 101.996 19.5199C102.042 19.4814 102.074 19.4282 102.087 19.3562C102.092 19.3861 102.094 19.41 102.097 19.4283C102.1 19.458 102.102 19.4729 102.108 19.4741C102.114 19.4753 102.125 19.4627 102.146 19.4374C102.154 19.4276 102.164 19.4159 102.176 19.4023C103.035 18.414 103.756 17.3004 103.856 16.0765C103.94 15.0385 102.834 13.0751 101.264 14.4353C100.561 15.0427 100.74 19.3067 101.795 19.5677C101.512 20.9807 101.157 22.3915 100.712 23.7843C100.646 23.7753 100.578 23.7745 100.511 23.7816C100.518 23.4354 100.518 23.0575 100.5 22.9276C100.343 21.8085 99.1303 19.5369 97.1979 19.9788C95.7127 20.3184 96.6218 21.7136 97.1269 22.3242C97.9394 23.3074 98.8593 23.7328 100.024 24.2438C100.048 24.4551 100.225 24.5779 100.433 24.6178C99.6518 26.8672 98.6252 29.0612 97.2822 31.1337L97.2466 31.002C97.0763 30.3731 96.8782 29.64 96.7525 29.486C96.0958 28.6802 94.6407 27.6963 93.298 28.1737C90.478 29.1779 93.5362 32.0596 95.9364 32.3722C96.0361 32.4784 96.1413 32.5637 96.2538 32.6127C95.787 33.2383 95.2883 33.8509 94.7545 34.4478C93.9539 35.3456 93.094 36.2405 92.1923 37.1302C92.1649 36.4345 91.8092 34.8842 91.7081 34.7177C91.0933 33.7062 89.3203 32.666 87.8807 33.3852C86.2612 34.1962 87.7281 35.7268 88.6508 36.4194C89.0288 36.7033 90.8997 37.7438 91.5601 37.7482C89.3813 39.8465 86.9766 41.9085 84.5319 43.8963C84.735 43.0067 85.001 40.5573 84.9718 40.2854C84.8211 38.8823 83.6251 36.6384 81.2664 37.1862C78.9774 37.7169 79.9885 40.0479 80.7709 41.1591C81.245 41.8317 81.9004 42.515 82.6915 42.9837C82.834 43.0683 83.0203 43.1369 83.2061 43.206C83.4302 43.2888 83.6538 43.3717 83.8 43.4814C83.9303 43.5791 83.9703 43.6913 84.0095 43.8028C84.0514 43.9204 84.0928 44.0368 84.24 44.1342C82.9187 45.2036 81.5884 46.2511 80.2772 47.2693C79.6583 47.7497 79.0284 48.2212 78.3922 48.6864C78.0443 48.5755 77.5483 48.7218 77.5738 49.1012C77.5774 49.1565 77.5943 49.2039 77.6162 49.2475C77.1343 49.593 76.6493 49.936 76.1601 50.2755C76.1715 50.1767 76.1683 50.0372 76.146 49.845C76.4976 50.2305 76.483 49.6687 76.4721 49.2407C76.4685 49.0892 76.4648 48.9547 76.478 48.8846C76.5299 48.6092 76.5974 48.3369 76.6643 48.0647C76.8073 47.4838 76.9499 46.9043 76.943 46.3046C76.9285 45.0319 75.8837 42.8983 73.6808 43.6573C71.6555 44.3537 72.391 46.2402 73.1543 47.4226C73.637 48.1709 74.2983 48.8389 74.9897 49.4786C75.1126 49.5926 75.2497 49.7473 75.385 49.9002C75.5858 50.1275 75.7839 50.3512 75.9306 50.4348C74.0497 51.7336 72.125 52.9946 70.1999 54.2556H70.1994L70.199 54.2559C69.3364 54.8209 68.4743 55.3856 67.6158 55.9537C67.5789 55.8291 67.5479 55.7056 67.5215 55.5898C67.5752 55.6366 67.6481 55.6585 67.7419 55.6543C67.767 55.5587 67.803 55.4316 67.8467 55.279C68.3777 53.4173 69.9954 47.7461 65.6246 48.8471C62.422 49.6556 64.6787 54.5922 67.0656 56.3184C65.616 57.283 64.1795 58.2605 62.7773 59.2669C61.7621 59.9947 60.7775 60.7481 59.8297 61.5262C60.3207 60.5187 60.7829 59.2149 60.4805 58.1773C60.0406 56.6678 57.9738 55.2429 55.9549 56.1028C53.4377 57.1797 55.3729 58.6477 57.1873 60.0248C58.1136 60.7279 59.0086 61.4072 59.2636 61.9984C56.2518 64.5508 53.6796 67.3864 51.9603 70.6156C50.0903 74.1277 48.3533 78.8463 49.3097 82.7743C49.1339 81.0471 49.8922 78.8778 50.425 77.3545C50.4979 77.147 50.5662 76.9516 50.6273 76.7707C51.4279 74.4081 52.5647 72.1092 54.0617 69.9575C56.46 66.5109 59.627 63.5847 63.2828 60.9275C64.1144 61.1506 65.018 61.564 65.7663 61.9064C66.2249 62.1163 66.6257 62.2997 66.9153 62.396C68.313 62.8604 70.9969 63.5256 71.8886 62.0611C72.7653 60.6206 70.5305 59.8163 69.1456 59.4942C67.8071 59.1833 66.6002 59.2216 65.3509 59.4772C67.286 58.155 69.2681 56.8742 71.2497 55.5941C71.6145 55.3587 71.9788 55.1232 72.3427 54.8875C72.8464 55.2054 73.402 55.6652 73.9923 56.1534C75.8655 57.7025 78.0843 59.5381 80.0682 58.0367C83.0622 55.7714 77.3406 53.4725 74.9022 53.6534C74.6026 53.6754 74.3129 53.7242 74.0305 53.7904C76.5186 52.1623 78.9674 50.501 81.2842 48.7228C81.6996 48.7812 82.3608 49.2521 83.1547 49.8178H83.1551C84.94 51.0893 87.397 52.8399 89.2497 51.46C90.5869 50.4642 90.1305 48.914 88.8389 48.0279C87.5423 47.1379 85.6618 47.1404 84.0628 47.441C83.3719 47.5702 82.7343 47.8166 82.14 48.1168C82.1145 48.1178 82.0903 48.1189 82.0662 48.1199C84.3456 46.3517 86.6387 44.5438 88.848 42.6743C88.8863 42.6838 88.9259 42.6937 88.9655 42.7036C89.099 42.8297 89.3226 42.8757 89.5271 42.8477C89.6391 42.8771 89.7534 42.9076 89.87 42.9387L89.8727 42.9394C91.6211 43.4039 93.8687 44.0011 95.6116 43.7423C96.8946 43.5522 98.0591 42.7479 96.9738 41.7584C96.0917 40.9541 93.6965 41.0706 92.5284 41.2618C91.9582 41.3552 91.3374 41.6253 90.7148 41.8962C90.453 42.0101 90.1911 42.1241 89.9319 42.2254C89.865 42.121 89.748 42.0537 89.6145 42.0215C91.7956 40.1428 93.8774 38.1994 95.7656 36.1715C96.3362 36.2395 96.9697 36.4326 97.6228 36.6318C99.1945 37.1111 100.881 37.6254 102.093 36.5157C103.881 34.8771 100.52 33.9224 98.9222 34.0786C98.3825 34.1313 97.8501 34.2494 97.3364 34.4053C98.7104 32.7358 99.7602 30.9514 100.498 29.0776C100.505 29.0803 100.512 29.0832 100.518 29.086C100.529 29.0905 100.539 29.095 100.552 29.0993C100.541 29.0947 100.531 29.0899 100.522 29.0851C100.514 29.0815 100.507 29.0779 100.499 29.0745C100.573 28.887 100.644 28.6987 100.711 28.5097C100.836 28.4561 100.952 28.4166 101.009 28.4004C100.282 28.7865 103.345 28.9741 103.919 29.0093C105.187 29.0868 106.886 29.1153 107.817 28.3141C108.599 27.6411 108.554 26.6472 107.598 26.0847ZM49.1198 82.6193C49.1758 83.1439 49.342 83.6225 49.6699 84.0148C49.4295 83.5666 49.2491 83.0997 49.1198 82.6193Z" fill="#212121"/>
<g opacity="0.7">
<path fill-rule="evenodd" clip-rule="evenodd" d="M232.17 118.636C238.387 118.386 246.077 121.207 246.74 126.46C247.222 130.277 247.073 134.083 247.819 137.895C248.415 140.941 249.676 143.865 251.396 146.64C253.05 149.308 256.481 151.579 257.373 154.429C257.942 156.246 257.624 158.801 256.84 160.577C255.886 162.737 256.393 162.567 258.293 164.379C262.017 167.931 265.371 171.573 267.743 175.815C271.158 181.925 273.398 189.068 272.13 195.756C271.969 196.605 271.778 199.653 270.273 199.866C268.592 200.104 269.379 198.361 269.468 197.798C270.04 194.205 270.548 191.065 269.858 187.416C267.197 173.337 254.203 164.061 245.742 152.111C245.277 151.495 244.295 150.028 243.613 149.06C242.534 147.531 241.451 144.623 239.992 143.49C237.244 141.355 239.77 145.647 240.306 146.466C240.983 147.503 241.727 148.605 242.422 149.513C245.596 153.722 249.139 158.317 252.417 162.657C238.238 165.168 228.253 151.918 224.447 143.207C221.312 136.03 217.561 119.25 232.17 118.636Z" fill="#A7FF83"/>
<path fill-rule="evenodd" clip-rule="evenodd" d="M315.506 105.308C305.112 105.949 298.439 111.281 295.333 118.737C293.659 122.756 293.467 126.884 292.536 131.014C291.137 137.227 288.126 141.935 282.241 146.362C280.418 147.732 279.075 149.14 278.12 150.646C276.225 152.149 274.575 153.851 273.362 155.931C271.814 158.587 271.376 161.775 273.163 164.423C273.644 165.135 274.843 166.564 276.086 167.214C271.433 174.917 268.874 183.354 269.163 191.78C269.337 196.866 269.656 201.954 270.029 207.034C270.13 208.398 270.701 210.651 271.559 208.363C272.345 206.27 271.36 202.986 271.269 200.8C270.825 190.151 270.446 180.469 276.085 170.52C276.677 169.477 277.304 168.442 277.957 167.417C277.995 167.399 278.031 167.378 278.067 167.358C278.091 167.373 278.114 167.389 278.139 167.404C278.181 167.346 278.238 167.277 278.305 167.2C278.492 167.05 278.655 166.86 278.811 166.648C279.311 166.11 279.877 165.476 279.88 165.13C279.88 165.127 279.879 165.123 279.879 165.12C283.369 160.69 287.368 156.505 291.452 152.401C291.422 152.431 295.883 147.71 295.193 150.32C294.861 151.579 291.579 153.975 290.254 155.308C287.323 158.273 283.88 162.03 281.019 165.662C280.634 165.834 280.091 166.678 279.697 167.307C279.48 167.626 279.277 167.947 279.078 168.227C289.215 170.83 297.1 165.587 302.477 159.488C302.483 159.48 302.489 159.473 302.495 159.466C304.131 157.781 305.807 156.107 307.901 154.775C311.394 152.552 315.136 152.16 319.255 151.066C330.487 148.083 335.263 136.767 336.78 128.371C338.491 118.899 330.12 104.374 315.506 105.308Z" fill="#086972"/>
<path fill-rule="evenodd" clip-rule="evenodd" d="M294.974 78.7825C284.306 87.4125 279.152 99.3829 275.071 110.636C270.513 123.205 267.502 135.968 267.387 149.035C267.311 157.621 267.011 166.26 267.656 174.836C267.884 177.881 268.275 180.932 268.896 183.945C268.947 184.193 270.337 190.92 271.666 189.353C272.422 188.461 270.241 182.374 270.077 181.36C269.15 175.65 268.935 169.897 268.98 164.146C269.054 154.676 268.695 145.255 269.93 135.82C270.114 134.411 270.26 132.931 270.69 131.553C271.147 130.088 270.565 130.728 272.054 130.147C273.501 129.584 275.288 129.664 276.789 128.957C282.743 126.151 285.788 118.942 288.159 114.213C290.87 108.805 292.518 103.037 293.834 97.3456C294.8 93.164 295.491 89.0077 295.882 84.772C296.005 83.437 296.013 82.0412 296.35 80.7285C296.441 80.3745 296.897 79.7483 296.881 79.4346C296.846 78.7709 296.33 78.3807 296.288 77.8232C295.841 78.1354 295.403 78.4554 294.974 78.7825Z" fill="#086972"/>
<path fill-rule="evenodd" clip-rule="evenodd" d="M236.805 193.767C236.805 208.039 251.69 219.609 270.052 219.609C288.413 219.609 303.298 208.039 303.298 193.767" fill="#086972"/>
<path fill-rule="evenodd" clip-rule="evenodd" d="M292.836 171.141C301.064 170.669 310.253 175.829 314.222 181.199C317.422 185.528 316.883 191.213 314.907 195.812C313.583 198.892 310.695 203.282 305.878 203.325C299.852 203.378 299.561 197.589 299.445 194.205C299.29 189.705 298.558 185.785 293.997 182.718C293.434 182.34 292.843 181.985 292.252 181.631C291.727 181.316 291.203 181.002 290.698 180.671C290.617 180.617 290.536 180.565 290.455 180.512C288.842 179.458 287.148 178.351 286.942 176.614C286.643 174.097 288.471 173.644 291.261 174.111C291.352 174.127 291.596 174.199 291.929 174.297C293.354 174.716 296.396 175.613 295.82 174.542C295.604 174.138 294.812 173.818 293.814 173.578C291.23 173.36 288.147 173.106 287.261 173.258C277.699 174.889 273.976 185.184 272.987 191.725C272.881 192.431 272.795 193.14 272.719 193.849H270.962C271.084 192.136 271.245 190.426 271.614 188.732C273.023 182.252 277.43 172.736 287.094 171.684C287.45 171.645 288.762 171.638 290.351 171.711C291.103 171.384 291.947 171.186 292.836 171.141Z" fill="#A7FF83"/>
</g>
<g opacity="0.5">
<path fill-rule="evenodd" clip-rule="evenodd" d="M88.7598 75.0008C90.6168 72.7586 94.0633 67.0639 96.6768 66.2627C98.3605 65.7467 97.8695 71.0847 97.8903 72.1026C97.9712 76.0407 97.5186 79.9538 96.9596 83.8586C95.952 90.9015 92.6584 97.1731 88.1407 103.167C85.8162 106.251 83.0891 109.373 79.3125 111.297C77.5744 112.184 75.4828 112.332 73.766 113.096C71.7663 113.985 72.8552 113.266 71.9541 115.03C70.7031 117.48 70.3027 120.64 69.7238 123.253C67.0656 135.251 60.6295 198.675 61.7454 210.879C61.8444 211.961 60.0635 212.22 59.9742 210.899C59.5018 203.897 63.5913 155.409 65.655 139.552C67.7183 123.694 69.8064 109.685 71.8998 104.2C74.4399 97.5436 79.027 89.5397 82.8456 83.3328C84.6195 80.4496 86.5529 77.6651 88.7598 75.0008Z" fill="#A7FF83"/>
<path fill-rule="evenodd" clip-rule="evenodd" d="M102.544 152.773C107.376 149.769 112.607 155.438 108.234 158.443C105.817 160.103 103.289 159.513 101.867 158.129C100.943 159.082 100.079 160.079 99.248 160.921C96.7171 163.487 94.3255 166.113 92.0394 168.801C87.2906 174.386 83.2209 180.285 78.9657 186.077C74.7666 191.793 70.6011 197.539 66.7949 203.4C63.5706 208.366 59.273 214.207 58.1691 219.651C59.8439 208.106 66.1996 197.008 73.7679 186.83C81.2747 176.735 89.8895 165.711 101.513 157.744C100.33 156.271 100.297 154.169 102.544 152.773Z" fill="#212121"/>
<path fill-rule="evenodd" clip-rule="evenodd" d="M10.8455 124.615C13.5497 125.063 17.9683 130.243 20.1974 132.216C22.8465 134.562 25.2499 137.061 27.5154 139.681C32.3925 145.319 36.7542 151.313 40.4631 157.563C46.5095 167.753 51.3538 178.214 54.8692 189.31C57.0214 196.102 58.4147 203.143 59.2402 210.133C59.3962 211.452 61.0287 221.617 58.6764 221.891C56.5609 222.137 57.2145 214.173 57.1124 213.089C55.9586 200.865 52.5023 188.972 47.6951 177.451C46.6478 174.941 45.6751 171.867 44.0003 169.608C42.7944 167.982 43.9917 168.549 41.8723 167.933C40.0526 167.404 37.9792 167.534 36.1157 166.886C32.0674 165.48 28.826 162.751 25.9846 160.006C20.4628 154.671 16.087 148.9 13.8061 142.064C12.5408 138.274 11.3781 134.461 10.7328 130.554C10.5659 129.544 9.1037 124.327 10.8455 124.615Z" fill="#A7FF83"/>
<path fill-rule="evenodd" clip-rule="evenodd" d="M21.5169 38.4302C31.7031 53.3886 40.0737 69.8203 45.4784 86.463C48.7535 96.5467 51.0435 106.894 53.3189 117.166C56.8419 133.072 60.1744 148.977 61.1223 165.165C62.076 181.447 63.9616 200.227 57.6656 215.909C60.8108 199.988 57.8163 183.04 57.286 167.019C57.0328 159.371 56.2988 151.798 55.3354 144.195C54.4008 136.819 52.8739 129.479 51.4523 122.161C50.7598 118.597 50.0324 115.039 49.2917 111.483C49.0703 110.421 48.9771 107.273 48.1821 106.548C47.3822 105.818 43.3004 105.521 42.0188 104.985C39.4383 103.907 37.0109 102.376 34.8626 100.757C30.7444 97.6547 27.1617 93.601 24.3339 89.6049C17.7913 80.359 15.1755 69.0753 15.3077 58.367C15.3331 56.288 19.2817 33.9001 17.6959 33.5918C17.7914 33.4971 17.8817 33.3993 17.9668 33.2976C19.1674 34.9998 20.3456 36.7135 21.5169 38.4302Z" fill="#086972"/>
<path fill-rule="evenodd" clip-rule="evenodd" d="M131.459 92.3796C131.617 92.1876 132.64 90.8528 132.124 90.9382C133.173 90.7641 130.682 92.4103 133.295 91.4003C132.054 92.3927 132.771 93.6814 132.787 95.017C132.814 97.1855 132.386 99.3357 131.904 101.457C131.141 104.811 130.006 108.072 128.358 111.192C124.767 117.99 118.668 124.534 111.428 128.784C107.854 130.882 104.351 131.597 100.275 132.563C97.6999 133.173 97.4958 134.301 96.1289 136.417C93.2839 140.823 90.4892 145.214 87.9795 149.769C84.9833 155.209 82.0746 160.654 79.3308 166.189C70.0872 184.834 62.564 204.151 58.6132 224.142C58.5164 212.361 61.7349 200.228 65.7944 188.999C68.7517 180.819 72.6012 172.932 76.7075 165.126C77.7023 163.235 79.2101 160.802 79.633 158.714C79.9287 157.251 79.0241 155.844 78.61 154.303C76.9952 148.302 77.111 141.578 78.5287 135.545C80.0922 128.892 84.613 125.804 92.2608 124.862C95.0577 124.517 98.613 124.643 101.177 123.633C103.972 122.534 105.124 118.919 106.713 116.599C110.981 110.366 116.051 104.389 121.874 99.137C123.486 97.6828 125.219 96.3409 127.059 95.0974C128.219 94.3127 130.669 93.3462 131.459 92.3796Z" fill="#086972"/>
<path fill-rule="evenodd" clip-rule="evenodd" d="M43.5171 213.563C43.3203 212.433 44.3544 211.419 45.7029 211.419H72.8446C74.1929 211.419 75.2269 212.433 75.0303 213.563L72.9325 225.608C72.293 229.28 68.5721 232 64.1887 232H54.3587C49.9753 232 46.2544 229.28 45.6149 225.608L43.5171 213.563Z" fill="#212121"/>
</g>
<path fill-rule="evenodd" clip-rule="evenodd" d="M21.576 206.319C21.576 213.854 22.3411 219.963 32.6102 219.963C42.8793 219.963 43.6443 213.854 43.6443 206.319" fill="#071A52"/>
<path fill-rule="evenodd" clip-rule="evenodd" d="M35.6651 201.617C35.2887 202.123 34.9531 202.639 34.6566 203.162C34.6462 202.084 34.7229 200.997 34.9324 199.896C35.2906 198.009 35.8377 196.132 36.3517 194.258C36.7212 192.912 36.6978 190.493 38.0999 189.42C38.4844 189.188 38.5769 189.643 38.5769 189.84C38.5818 189.882 38.5759 189.035 38.2027 189.182C35.9844 190.073 35.2657 192.873 34.5555 194.275C33.5193 196.321 32.6378 198.413 32.2747 200.542C32.183 201.08 32.1331 201.617 32.1216 202.154C32.0461 202.011 31.9753 201.866 31.897 201.723C30.6167 199.389 28.8889 197.111 26.734 195.011C26.2035 194.494 19.5341 189.395 19.012 190.175C19.0635 190.289 19.1714 190.383 19.3358 190.457C19.3455 190.466 19.3457 190.461 19.3401 190.449C19.7318 190.941 20.8455 191.7 21.1924 192.131C22.0654 193.215 22.7439 194.366 23.4335 195.495C24.8903 197.881 26.2417 200.291 27.5517 202.706C27.8568 203.268 28.1747 203.827 28.4991 204.385C25.1554 200.636 20.6947 197.233 14.5543 195.285C16.6515 196.114 18.0265 197.674 19.4429 198.869C21.1511 200.31 22.9503 201.712 24.6617 203.152C26.6803 204.85 29.0555 206.638 30.9972 208.517C32.8779 211.586 34.7055 214.659 35.8337 217.885C35.3714 216.77 35.7974 215.23 35.7183 214.06C35.6555 213.129 35.5154 212.205 35.3236 211.283C35.5608 211.699 35.7653 212.115 35.8578 212.502C35.7733 211.853 35.6759 211.208 35.5712 210.566C35.8398 209.966 36.1035 209.405 36.2817 208.943C37.1947 206.575 38.2818 204.246 39.7623 201.977C41.1322 199.879 42.7035 197.806 44.4158 195.797C45.2145 194.861 46.0242 193.927 46.829 192.992C47.3555 192.38 47.8569 191.401 48.5901 190.814C43.8505 194.183 38.6722 197.575 35.6651 201.617Z" fill="#071A52"/>
<path fill-rule="evenodd" clip-rule="evenodd" d="M323.17 47.8551C321.812 44.3324 318.622 41.5751 315.31 39.0489C308.864 34.1307 305.396 31.0899 303.099 23.8955C301.748 19.6643 300.372 15.1806 296.087 12.1108C292.966 9.87536 287.595 7.99718 283.422 9.59792C277.002 12.5765 275.278 18.6891 275.925 24.1626C276.728 30.9466 280.805 35.1296 288.637 37.6283C293.05 39.0355 295.983 40.8925 298.379 44.1282C300.295 46.7152 301.412 49.9551 303.82 52.3004C307.42 55.8068 311.925 57.3652 317.478 56.7828C312.277 49.3448 306.2 41.8367 298.871 35.574C298.184 34.9444 294.138 32.5345 294.954 31.4615C295.853 30.28 300.007 34.7182 299.978 34.6913C302.108 36.5918 304.079 38.6114 306.014 40.6504C306.009 40.6522 306.004 40.6536 305.998 40.6554C307.991 42.7479 309.968 44.8709 311.907 47.0204C312.691 47.9298 313.454 48.8506 314.185 49.7947C315.257 51.18 316.959 55.1116 318.714 55.9633C319.089 56.1453 319.437 56.2472 319.761 56.289C320.959 57.813 322.124 59.349 323.232 60.9031C326.125 64.9621 328.608 69.2477 329.748 73.8304C330.081 75.1681 329.845 80.1713 331.02 81.137C333.168 82.9032 332.538 79.5019 332.41 78.4753C331.343 69.9745 327.417 62.7323 321.716 55.5856C323.468 53.8078 323.721 49.2825 323.17 47.8551Z" fill="#071A52"/>
<path fill-rule="evenodd" clip-rule="evenodd" d="M249.617 51.9627C251.881 49.8893 257.323 49.5374 260.652 49.6762C264.771 49.8478 269.002 50.6274 272.92 51.5697C279.375 53.1217 285.648 55.9545 291.333 58.6962C292.018 59.0265 300.458 62.9719 299.711 63.6644C298.971 64.3504 290.685 59.6637 288.838 58.8559C284.897 57.1319 281.284 55.0928 276.94 53.954C272.442 52.7748 267.686 52.3078 262.956 52.3401C262.349 52.3443 260.369 52.0154 260.326 52.7135C260.285 53.3961 263.561 53.0399 264.138 53.0442C266.524 53.0612 268.925 53.2357 271.277 53.5571C275.685 54.1593 279.828 55.3721 283.602 57.2328C282.549 59.1363 280.024 60.0138 277.376 59.5374C275.087 59.1256 272.855 58.11 270.614 57.8165C269.07 57.6144 267.525 57.7348 266.028 58.0728C262.079 58.9646 259.802 60.792 255.46 59.5207C252.057 58.5245 246.365 54.9445 249.617 51.9627Z" fill="#071A52"/>
<path fill-rule="evenodd" clip-rule="evenodd" d="M239.88 18.552C234.853 18.267 229.24 21.3856 226.814 24.631C224.86 27.2476 225.189 30.6836 226.396 33.4635C227.205 35.3246 228.969 37.9781 231.912 38.004C235.594 38.0363 235.771 34.5373 235.843 32.4917C235.937 29.7722 236.384 27.4031 239.171 25.5494C239.515 25.3207 239.876 25.1065 240.237 24.8923C240.557 24.7022 240.878 24.512 241.186 24.3118C241.236 24.2798 241.285 24.2478 241.335 24.2157C242.32 23.5788 243.355 22.9099 243.481 21.8601C243.664 20.3388 242.547 20.065 240.842 20.3476C240.787 20.3567 240.638 20.4003 240.435 20.4595C239.564 20.7133 237.706 21.2549 238.057 20.6075C238.189 20.3636 238.673 20.1702 239.283 20.0254C240.862 19.8934 242.745 19.7402 243.286 19.8317C249.128 20.8173 251.403 27.0398 252.007 30.9933C252.075 31.441 252.13 31.8902 252.177 32.3401H253.249C253.173 31.2835 253.075 30.2287 252.846 29.1839C251.985 25.2679 249.293 19.5162 243.388 18.8806C243.171 18.8569 242.369 18.8529 241.399 18.8967C240.939 18.699 240.424 18.5795 239.88 18.552Z" fill="#071A52"/>
</g>
</g>
<defs>
<clipPath id="clip0_27_99">
<rect width="327" height="223" fill="white" transform="translate(10 9)"/>
</clipPath>
</defs>
</svg>
