<svg width="46" height="79" viewBox="0 0 46 79" fill="none" xmlns="http://www.w3.org/2000/svg">
<path d="M29.9817 14.8052C29.2433 14.3818 28.4752 14.0123 27.6835 13.6995C26.9517 13.4171 26.3216 12.9214 25.875 12.2767C25.4283 11.6319 25.1856 10.8678 25.1783 10.0835V5.67081H10.7706V10.0835C10.7654 10.8696 10.5233 11.6359 10.0759 12.2823C9.6286 12.9287 8.99677 13.4253 8.26293 13.7072C7.47121 14.0199 6.70311 14.3895 5.96464 14.8129C2.64489 16.7281 0.992676 19.2384 0.992676 21.7461V55.0202C0.992676 57.5278 2.65 60.0381 5.96464 61.9533C12.6041 65.7838 23.3474 65.7838 29.969 61.9533C33.2887 60.0381 34.9435 57.5304 34.9435 55.0202V21.7384C34.9563 19.2282 33.2887 16.7205 29.9817 14.8052Z" fill="#17B978"/>
<path opacity="0.7" d="M29.9817 14.8052C29.2433 14.3818 28.4752 14.0123 27.6835 13.6995C26.9517 13.4171 26.3216 12.9214 25.875 12.2767C25.4283 11.6319 25.1856 10.8678 25.1783 10.0835V5.67081H10.7706V10.0835C10.7654 10.8696 10.5233 11.6359 10.0759 12.2823C9.6286 12.9287 8.99677 13.4253 8.26293 13.7072C7.47121 14.0199 6.70311 14.3895 5.96464 14.8129C2.64489 16.7281 0.992676 19.2384 0.992676 21.7461V55.0202C0.992676 57.5278 2.65 60.0381 5.96464 61.9533C12.6041 65.7838 23.3474 65.7838 29.969 61.9533C33.2887 60.0381 34.9435 57.5304 34.9435 55.0202V21.7384C34.9563 19.2282 33.2887 16.7205 29.9817 14.8052Z" fill="#A7FF83"/>
<path d="M17.9847 64.8185C27.3564 64.8185 34.9537 60.4751 34.9537 55.1172C34.9537 49.7593 27.3564 45.4159 17.9847 45.4159C8.61292 45.4159 1.01562 49.7593 1.01562 55.1172C1.01562 60.4751 8.61292 64.8185 17.9847 64.8185Z" fill="#17B978"/>
<path opacity="0.5" d="M17.9847 64.8185C27.3564 64.8185 34.9537 60.4751 34.9537 55.1172C34.9537 49.7593 27.3564 45.4159 17.9847 45.4159C8.61292 45.4159 1.01562 49.7593 1.01562 55.1172C1.01562 60.4751 8.61292 64.8185 17.9847 64.8185Z" fill="#A7FF83"/>
<path opacity="0.4" d="M26.5547 10.3108C23.4316 8.50792 19.0189 7.89504 15.0148 8.47983V5.67081H10.7706V10.081C10.7662 10.8676 10.5245 11.6346 10.0771 12.2816C9.62968 12.9285 8.99738 13.4254 8.26293 13.7072C7.4723 14.0224 6.70437 14.3919 5.96464 14.8129C5.93655 14.8129 5.91356 14.8461 5.88292 14.8588C2.61935 16.769 0.992676 19.2562 0.992676 21.7537V55.0099C0.992676 57.5227 2.65 60.0279 5.96464 61.9431C10.7349 64.6985 17.6348 65.4595 23.6002 64.2542C9.79512 65.2016 6.47537 59.3486 6.47537 55.1146V22.7624C6.47537 21.2685 6.70009 20.0351 7.7522 18.9958C8.26334 19.4635 8.82624 19.8713 9.42995 20.2113C14.167 22.9437 21.8407 22.9437 26.5726 20.2113C31.3045 17.4789 31.2918 13.0483 26.5547 10.3108Z" fill="#A7FF83"/>
<path opacity="0.4" d="M29.9817 14.8052C29.2432 14.3818 28.4751 14.0123 27.6834 13.6995C26.9517 13.4171 26.3216 12.9214 25.8749 12.2767C25.4282 11.6319 25.1855 10.8678 25.1783 10.0835V5.67081H23.6052V11.5774C23.6052 12.9385 24.7774 14.2332 26.1333 14.9738C27.4893 15.7143 31.7999 17.5862 32.8443 19.6342C33.8403 21.5826 33.516 25.4565 33.516 30.0531V53.5467C33.516 56.5294 32.2723 60.845 26.7334 63.4395C27.8594 63.0551 28.9476 62.5679 29.9843 61.984C33.304 60.0687 34.9562 57.6606 34.9562 55.0202V21.7384C34.9562 19.2282 33.2887 16.7205 29.9817 14.8052Z" fill="#A7FF83"/>
<path d="M30.1093 11.8634V13.1198C30.1093 14.9074 28.9321 16.7103 26.5546 18.0867C21.8227 20.8165 14.1515 20.8165 9.40686 18.0867C8.3625 17.5165 7.45525 16.7252 6.74851 15.768C6.18668 15.0069 5.87765 14.0887 5.86494 13.1428V11.8379C5.86104 11.5642 5.8928 11.2913 5.95943 11.0258C6.2531 9.50896 7.40735 8.03805 9.40686 6.8838C9.46397 6.84783 9.52373 6.81625 9.58561 6.78932C14.338 4.15395 21.8815 4.1897 26.5546 6.8838C28.5542 8.03805 29.7212 9.50896 30.0148 11.0156C30.0817 11.2932 30.1134 11.578 30.1093 11.8634Z" fill="#A7FF83"/>
<path d="M18.9882 18.8298V14.3685C18.9882 12.604 19.4351 14.9916 16.3401 14.9916C13.6562 14.9916 11.2685 8.80159 9.59843 6.78931C9.53655 6.81624 9.47679 6.84782 9.41968 6.88379C7.42017 8.03804 6.26592 9.50895 5.97225 11.0258C5.90562 11.2913 5.87386 11.5642 5.87776 11.8379V13.1428C5.89047 14.0887 6.19949 15.0068 6.76132 15.768C7.46806 16.7252 8.37532 17.5165 9.41968 18.0867C14.1644 20.8165 21.8355 20.8165 26.5675 18.0867C23.212 19.4044 18.9882 20.5126 18.9882 18.8298Z" fill="#17B978"/>
<path d="M17.9846 18.8349C24.6795 18.8349 30.1068 15.7011 30.1068 11.8353C30.1068 7.96956 24.6795 4.83575 17.9846 4.83575C11.2897 4.83575 5.86243 7.96956 5.86243 11.8353C5.86243 15.7011 11.2897 18.8349 17.9846 18.8349Z" fill="#086972"/>
<path d="M30.1093 7.66011V10.1678C30.1133 10.4532 30.0815 10.738 30.0149 11.0156C29.7212 12.5223 28.5542 13.9932 26.5547 15.1449C24.4351 16.3706 21.7308 17.0397 18.9754 17.1597C15.551 17.3231 12.032 16.649 9.40688 15.1347C8.3671 14.5668 7.46073 13.7832 6.74853 12.8364C6.35924 12.2967 6.09175 11.679 5.96456 11.0258C5.89791 10.7569 5.86615 10.4806 5.87007 10.2036V7.63713C5.87007 5.84957 7.04731 4.06201 9.41199 2.68304C9.62394 2.56557 9.8359 2.4481 10.0606 2.34085C14.8257 -0.0468147 22.0398 0.0706546 26.5598 2.68304C28.9321 4.05946 30.1196 5.85979 30.1093 7.66011Z" fill="#A7FF83"/>
<path d="M17.9846 14.5754C24.6795 14.5754 30.1068 11.4416 30.1068 7.57583C30.1068 3.71008 24.6795 0.576263 17.9846 0.576263C11.2897 0.576263 5.86243 3.71008 5.86243 7.57583C5.86243 11.4416 11.2897 14.5754 17.9846 14.5754Z" fill="#A7FF83"/>
<path d="M6.74851 12.8287C7.46071 13.7755 8.36708 14.5591 9.40686 15.127C12.032 16.6438 15.551 17.3155 18.9754 17.152C19.0086 16.271 19.5015 15.5968 16.3273 14.984C13.6919 14.4732 9.79502 13.3803 7.97682 10.4998C6.30673 7.85162 7.2669 4.37099 10.0555 2.32806C9.83077 2.43532 9.61882 2.55278 9.40686 2.67025C7.04218 4.03646 5.86495 5.82401 5.86495 7.62434V10.1908C5.86102 10.4678 5.89278 10.7441 5.95943 11.013C6.08746 11.6684 6.35673 12.288 6.74851 12.8287Z" fill="#17B978"/>
<path d="M30.0404 33.761C23.378 37.571 12.576 37.571 5.91352 33.761C2.581 31.8585 0.916016 29.361 0.916016 26.8661V43.3423C0.916016 45.8372 2.581 48.3347 5.91352 50.2372C12.576 54.0472 23.378 54.0472 30.0404 50.2372C33.373 48.3347 35.0379 45.8372 35.0379 43.3423V26.8661C35.0379 29.361 33.373 31.8585 30.0404 33.761Z" fill="#17B978"/>
<path d="M30.0404 32.1828C23.378 35.9903 12.576 35.9903 5.91352 32.1828C2.581 30.2778 0.916016 27.7829 0.916016 25.288V41.7641C0.916016 44.2616 2.581 46.7565 5.91352 48.659C12.576 52.4665 23.378 52.4665 30.0404 48.659C33.373 46.754 35.0379 44.259 35.0379 41.7641V25.2854C35.0379 27.7829 33.373 30.2778 30.0404 32.1828Z" fill="#A7FF83"/>
<path d="M12.4432 41.8969C12.4286 40.866 12.2081 39.8485 11.7946 38.904V38.8836C11.3222 37.806 10.6378 36.902 9.87682 36.4627C8.76598 35.8243 7.8339 36.8739 7.46362 38.3422C7.42787 38.4903 7.25422 38.498 7.23124 38.3422C6.89416 36.427 5.92377 34.1823 4.77973 33.5286C4.01363 33.0919 3.33436 33.2094 2.86449 33.7482C2.46357 34.2181 2.21841 34.9918 2.22097 36.0005C2.22097 39.1262 4.10812 41.9327 5.68628 44.8872L7.38956 47.7397L9.00858 46.7948C10.5612 45.6687 12.4483 45.0226 12.4432 41.8969Z" fill="#17B978"/>
<path d="M5.00184 40.8755L5.72964 38.9679C5.74738 38.9072 5.78438 38.854 5.83506 38.8162C5.88574 38.7784 5.94733 38.7582 6.01054 38.7585C6.07427 38.7589 6.13593 38.7812 6.1852 38.8217C6.23446 38.8621 6.26836 38.9182 6.28123 38.9807L7.40739 43.3602L8.30372 40.9087C8.32449 40.8527 8.36224 40.8046 8.4117 40.7712C8.46116 40.7378 8.51984 40.7207 8.57952 40.7222C8.63829 40.7259 8.69447 40.7478 8.74023 40.7849C8.786 40.822 8.81908 40.8724 8.83488 40.9291L9.50138 43.2989L11.8175 44.6344L11.7639 44.7162C11.6844 44.8269 11.5992 44.9335 11.5086 45.0354L11.46 45.0915L9.10812 43.733C9.04408 43.6963 8.99723 43.6357 8.97788 43.5645L8.51823 41.9327L7.58614 44.4863C7.56485 44.544 7.52552 44.5933 7.474 44.6269C7.42248 44.6605 7.36151 44.6766 7.30013 44.6727C7.23933 44.6681 7.18165 44.644 7.13565 44.604C7.08965 44.5639 7.05777 44.5102 7.04477 44.4506L5.96457 40.2371L5.45384 41.3836C5.44241 41.4254 5.42149 41.464 5.39269 41.4963C5.3639 41.5286 5.32802 41.5539 5.28786 41.5701C5.24698 41.5873 5.20267 41.5949 5.15838 41.5922C5.11409 41.5896 5.07101 41.5767 5.03249 41.5547L3.18109 40.4848L3.16832 40.4592C3.07895 40.2575 2.99212 40.0583 2.91296 39.8566L2.81592 39.6165L5.00184 40.8755Z" fill="#A7FF83"/>
<path d="M18.1047 40.8448C17.4535 40.8448 16.7972 40.8244 16.1307 40.7835C16.0634 40.779 16.0006 40.7479 15.9561 40.6972C15.9116 40.6465 15.889 40.5802 15.8932 40.5129C15.8978 40.4455 15.9288 40.3828 15.9796 40.3383C16.0303 40.2938 16.0965 40.2712 16.1639 40.2754C20.6507 40.5486 24.8463 39.8744 28.3091 38.3218C28.3397 38.3081 28.3728 38.3005 28.4064 38.2995C28.4401 38.2986 28.4735 38.3043 28.5049 38.3162C28.5364 38.3282 28.5651 38.3462 28.5896 38.3693C28.614 38.3924 28.6337 38.4201 28.6474 38.4508C28.6612 38.4815 28.6687 38.5146 28.6697 38.5482C28.6707 38.5818 28.665 38.6153 28.653 38.6467C28.641 38.6781 28.623 38.7068 28.5999 38.7313C28.5768 38.7557 28.5491 38.7754 28.5185 38.7891C25.5 40.1451 21.93 40.8448 18.1047 40.8448Z" fill="#17B978"/>
<path d="M18.1047 43.6181C17.4535 43.6181 16.7972 43.5977 16.1307 43.5568C16.0634 43.5522 16.0006 43.5212 15.9561 43.4704C15.9116 43.4197 15.889 43.3534 15.8932 43.2861C15.8978 43.2188 15.9288 43.156 15.9796 43.1115C16.0303 43.067 16.0965 43.0444 16.1639 43.0486C20.6507 43.3219 24.8463 42.6477 28.3091 41.0951C28.371 41.0673 28.4415 41.0653 28.5049 41.0895C28.5684 41.1137 28.6197 41.1621 28.6474 41.224C28.6752 41.286 28.6772 41.3565 28.653 41.4199C28.6288 41.4834 28.5804 41.5346 28.5185 41.5624C25.5 42.9184 21.93 43.6181 18.1047 43.6181Z" fill="#17B978"/>
<path d="M18.1046 46.3939C17.4535 46.3939 16.7972 46.3735 16.1307 46.3326C16.0629 46.3282 15.9997 46.2971 15.955 46.2461C15.9102 46.1951 15.8875 46.1284 15.8919 46.0607C15.8963 45.9929 15.9274 45.9297 15.9784 45.885C16.0294 45.8402 16.0961 45.8175 16.1639 45.8219C20.6506 46.0977 24.8463 45.4235 28.309 43.8709C28.3707 43.8433 28.4408 43.8412 28.5039 43.8651C28.5671 43.8891 28.6183 43.9371 28.6461 43.9986C28.6602 44.0293 28.6681 44.0624 28.6693 44.0961C28.6705 44.1298 28.665 44.1635 28.6531 44.195C28.6412 44.2266 28.6232 44.2555 28.6001 44.2801C28.577 44.3047 28.5492 44.3244 28.5184 44.3382C25.5 45.6891 21.93 46.3939 18.1046 46.3939Z" fill="#17B978"/>
<path d="M44.3742 52.4895C44.3742 51.2714 43.5698 50.0507 41.9584 49.1212C38.7383 47.2621 33.516 47.2621 30.2959 49.1212C28.6845 50.0507 27.8801 51.2714 27.8801 52.4895V73.6618C27.8801 74.8799 28.6845 76.098 30.2959 77.0275C33.516 78.8891 38.7383 78.8891 41.9584 77.0275C43.5698 76.098 44.3742 74.8799 44.3742 73.6618V52.4895Z" fill="#17B978"/>
<path opacity="0.4" d="M41.2051 48.7407V77.4106C41.4669 77.3 41.7226 77.1755 41.9712 77.0378C42.4505 76.767 42.8911 76.4328 43.2812 76.0444V50.1171C42.8907 49.7285 42.4501 49.3936 41.9712 49.1212C41.7158 48.9833 41.4604 48.8582 41.2051 48.7407Z" fill="#A7FF83"/>
<path opacity="0.4" d="M39.0421 78.1128C39.4431 78.0247 39.8394 77.9164 40.2296 77.7885V48.3628C39.8398 48.2337 39.4434 48.1254 39.0421 48.0385V78.1128Z" fill="#A7FF83"/>
<path opacity="0.1" d="M44.2312 51.611C43.7197 50.9233 43.0655 50.3545 42.3134 49.9435C39.1341 48.1074 34.1187 47.9823 30.684 49.563V48.9195C30.5538 48.9859 30.4287 49.0497 30.2959 49.1212C28.6845 50.0507 27.8801 51.2714 27.8801 52.4895V55.7122V69.0448V73.6618C27.8801 74.8799 28.6845 76.098 30.2959 77.0275C33.516 78.8891 38.7383 78.8891 41.9584 77.0275C42.5047 76.7221 43.0008 76.3345 43.4293 75.8784C41.8971 77.311 38.0667 78.1001 35.2398 77.5408C32.4129 76.9816 30.684 75.1736 30.684 73.8865V69.6934C32.275 70.554 34.3562 70.9703 36.3889 70.9703V62.4053C34.346 62.4053 32.275 62.0912 30.684 61.2357V57.4666C34.1187 59.0473 39.1341 58.9221 42.3134 57.0861C43.1501 56.6363 43.8591 55.9818 44.3742 55.1836V52.4895C44.3732 52.1909 44.325 51.8944 44.2312 51.611Z" fill="#086972"/>
<path opacity="0.1" d="M29.2719 74.2517V49.8413C28.3449 50.6406 27.8801 51.5651 27.8801 52.4895V73.6618C27.8801 74.8799 28.6845 76.098 30.2959 77.0275C31.2717 77.5703 32.329 77.9514 33.4267 78.1562C30.3291 77.3161 29.2719 75.1991 29.2719 74.2517Z" fill="#086972"/>
<path d="M44.8746 48.7228C44.8746 47.4307 44.0217 46.136 42.321 45.1477C38.9042 43.1763 33.3653 43.1763 29.9486 45.1477C28.2402 46.1334 27.3949 47.4281 27.3949 48.7228V52.5993C27.3949 53.8914 28.2478 55.1861 29.9486 56.1744C33.3653 58.1458 38.9042 58.1458 42.321 56.1744C44.0294 55.1887 44.8746 53.894 44.8746 52.5993V48.7228Z" fill="#A7FF83"/>
<g opacity="0.2">
<path d="M45.0841 48.3628H44.6653V54.3945H45.0841V48.3628Z" fill="#086972"/>
<path d="M44.1188 49.992H43.7V56.0569H44.1188V49.992Z" fill="#086972"/>
<path d="M42.6581 51.1131H42.2393V57.2086H42.6581V51.1131Z" fill="#086972"/>
<path d="M40.9931 51.8102H40.5743V57.939H40.9931V51.8102Z" fill="#086972"/>
<path d="M39.1621 52.275H38.7433V58.4369H39.1621V52.275Z" fill="#086972"/>
<path d="M37.2239 52.5074H36.8051V58.7025H37.2239V52.5074Z" fill="#086972"/>
<path d="M35.255 52.4997H34.8362V58.7255H35.255V52.4997Z" fill="#086972"/>
<path d="M33.3347 52.2443H32.9159V58.5033H33.3347V52.2443Z" fill="#086972"/>
<path d="M31.5344 51.7259H31.1156V58.0181H31.5344V51.7259Z" fill="#086972"/>
<path d="M29.9026 50.9241H29.4838V57.2495H29.9026V50.9241Z" fill="#086972"/>
<path d="M28.6079 49.8081H28.1891V56.1642H28.6079V49.8081Z" fill="#086972"/>
<path d="M27.589 48.0052H27.1702V54.3945H27.589V48.0052Z" fill="#086972"/>
</g>
<path opacity="0.1" d="M38.2198 57.4972C33.8913 57.5227 31.6058 56.1157 30.9138 54.9691C30.3852 54.0957 30.2958 52.4869 30.2958 50.8832C30.2958 50.8832 29.808 47.2468 29.9025 47.2366C29.997 47.2264 28.8632 46.9813 28.023 46.8127C27.6148 47.3639 27.3897 48.0293 27.3795 48.7152V52.5993C27.3795 53.8914 28.2324 55.1861 29.9332 56.1744C32.1855 57.4665 35.3469 57.9058 38.2198 57.4972Z" fill="#086972"/>
<path d="M36.1259 53.774C40.9577 53.774 44.8747 51.5125 44.8747 48.7228C44.8747 45.9332 40.9577 43.6717 36.1259 43.6717C31.294 43.6717 27.3771 45.9332 27.3771 48.7228C27.3771 51.5125 31.294 53.774 36.1259 53.774Z" fill="#A7FF83"/>
<path d="M42.7832 51.9941C45.7148 50.0099 45.5616 47.0272 42.3134 45.1503C40.6484 44.1901 38.4829 43.6998 36.2944 43.6768C35.1751 43.8508 34.0949 44.2189 33.1023 44.7647C30.1503 46.4526 30.1503 49.8235 33.1023 51.5114C35.7377 53.0181 39.8338 53.1764 42.7832 51.9941Z" fill="#A7FF83"/>
<path opacity="0.1" d="M30.7708 76.6522C33.7279 78.1384 38.5262 78.1384 41.4834 76.6522C44.4405 75.1659 44.4431 72.7553 41.4834 71.2691C38.5237 69.7828 33.7279 69.7828 30.7708 71.2691C27.8137 72.7553 27.8111 75.1659 30.7708 76.6522Z" fill="#086972"/>
<path d="M27.8801 58.0539C27.8801 59.272 28.6845 60.4901 30.2959 61.4196C31.9072 62.3491 34.0166 62.8139 36.1259 62.8139V71.2078C34.0166 71.2078 31.9047 70.743 30.2959 69.8135C28.6871 68.8839 27.8801 67.6658 27.8801 66.4478V58.0539Z" fill="#A7FF83"/>
<path d="M28.0486 50.6611C28.0486 50.6611 30.8934 53.5263 36.3888 53.3756C41.8843 53.2249 44.0855 50.2244 44.3741 49.2898C44.5221 48.7419 44.5319 48.1658 44.4026 47.6132C44.2734 47.0606 44.0091 46.5487 43.6335 46.1232C44.0055 46.449 44.3073 46.8469 44.5207 47.293C44.734 47.739 44.8544 48.2237 44.8746 48.7177V52.5993C44.8746 52.9262 45.0431 54.0549 43.2684 55.5156C43.2684 55.5156 44.3102 54.3332 44.3102 53.1969V50.5155C44.3102 50.5155 42.3644 53.7689 36.3939 53.7689C30.4235 53.7689 28.3499 51.1488 28.0486 50.6611Z" fill="#A7FF83"/>
</svg>
