<svg width="68" height="87" viewBox="0 0 68 87" fill="none" xmlns="http://www.w3.org/2000/svg">
<circle cx="25.0831" cy="43.7607" r="4.06175" fill="#A7FF83" stroke="#086972" stroke-width="0.1"/>
<path d="M29.2208 54.3817L28.7623 53.9138C26.4689 53.7344 22.984 52.8138 20.7768 50.0884C20.6478 49.9296 20.5295 49.7623 20.4229 49.5878C20.225 49.2692 20.0858 48.918 20.0119 48.5506C19.6369 46.5842 21.6696 45.1532 22.6269 44.919C23.8315 44.6278 25.9041 45.0065 26.7395 45.1837C26.9682 45.233 27.1051 45.2653 27.1051 45.2653C27.2544 45.277 27.4043 45.277 27.5537 45.2653C27.6564 45.2595 27.7668 45.2518 27.8848 45.2424C27.9229 45.2424 27.961 45.2388 28.001 45.2348C28.0239 45.2348 28.0458 45.2348 28.0696 45.2312C28.5241 45.1994 28.9803 45.2052 29.4339 45.2483C29.5635 45.2617 29.6986 45.2806 29.8376 45.3034C29.9134 45.3169 29.9897 45.3321 30.0678 45.3483C30.1306 45.3618 30.1934 45.377 30.258 45.3932C30.3055 45.4048 30.3531 45.4178 30.4006 45.4313C30.498 45.4578 30.5949 45.4865 30.6918 45.5188C30.6963 45.5206 30.7008 45.5219 30.7053 45.5228C30.7501 45.5376 30.795 45.5529 30.8398 45.5704V45.5681C31.5379 45.8265 32.1848 46.2061 32.7505 46.6897C33.2777 47.1352 33.8582 47.5995 34.4616 48.062C35.2691 48.6789 36.1174 49.2935 36.9469 49.8529C36.9469 49.8529 37.2479 49.9103 37.697 49.9673L37.7029 49.9197V44.3811H48.7071C50.5015 48.1943 53.3131 55.1134 55.3058 60.6633C57.3785 66.4339 64.0396 76.5131 65.3908 79.8818C66.9991 83.8862 66.9991 86.1176 66.9991 86.1176H43.3312C43.3416 85.2374 43.2487 84.359 43.0536 83.5004L43.9158 79.6422C43.246 79.6593 42.1913 79.6422 42.1913 79.6422V79.6458C42.0697 79.6193 41.4663 79.4691 39.0061 78.8275C35.2529 77.8491 27.1145 67.6649 27.1145 67.6649C26.2926 67.2805 24.8517 65.4842 23.9988 64.3555C23.5736 63.7929 23.3146 63.1222 23.251 62.4197H23.2375C23.2375 62.4197 18.9613 61.9262 16.6639 61.194C16.6639 61.194 13.004 60.2349 11.9839 59.7952C11.9839 59.7952 5.58922 57.422 3.97329 56.4876C2.35736 55.5531 3.12091 51.6362 6.35592 52.5724C8.26121 53.1224 9.93995 53.6801 10.018 53.707C10.7467 54.2305 11.6217 54.5118 12.5191 54.51H17.2516C17.2516 54.51 22.7669 55.711 23.8041 55.9411L23.9387 55.9488C24.048 55.4481 24.224 54.964 24.4618 54.51H29.1248L29.2208 54.3817Z" fill="#FFE8BB"/>
<path d="M48.708 44.381H37.7037V24.0549C37.7037 24.0549 39.3233 24.5516 41.3941 28.1028C43.4649 31.6541 46.7228 40.2398 48.4989 43.9391C48.5671 44.0805 48.6384 44.2267 48.708 44.381Z" fill="#FFE8BB"/>
<path d="M42.2142 79.6499L42.1913 79.6423C42.1913 79.6423 43.246 79.6593 43.9158 79.6423L43.0535 83.5004C42.7184 81.6983 42.216 79.7342 42.1931 79.6445C42.1998 79.6468 42.207 79.6486 42.2142 79.6499Z" fill="#17B978"/>
<path d="M37.7037 44.3811V49.9157L37.6979 49.9633C37.2492 49.9063 36.9478 49.8489 36.9478 49.8489C36.1183 49.2894 35.2695 48.6748 34.4624 48.058L34.4889 48.0239C34.6226 47.7094 34.6912 47.3716 34.6907 47.0302V44.3833L37.7037 44.3811Z" fill="#A7FF83"/>
<path d="M34.6907 12.407V9.67039C34.6907 8.99222 34.4211 8.34176 33.942 7.86223C33.4624 7.38265 32.8119 7.11326 32.1336 7.11326H16.9657C16.2876 7.11326 15.6371 7.38265 15.1576 7.86223C14.678 8.34176 14.4086 8.99222 14.4086 9.67039V15.2463C14.4086 15.5821 14.4747 15.9146 14.6033 16.2249C14.7317 16.5351 14.9201 16.817 15.1576 17.0545C15.395 17.2919 15.6769 17.4803 15.9872 17.6088C16.2974 17.7373 16.63 17.8034 16.9657 17.8034H32.1323C32.4683 17.8034 32.8007 17.7373 33.1107 17.6088C33.4212 17.4803 33.7029 17.2919 33.9407 17.0545C34.178 16.817 34.3664 16.5351 34.4947 16.2249C34.6235 15.9146 34.6894 15.5821 34.6894 15.2463L34.6907 12.407ZM10.9542 28.7745V5.47355C10.9544 4.25563 11.4382 3.08765 12.2993 2.22643C13.1605 1.3652 14.3284 0.88125 15.5463 0.881012H16.0963C16.0963 1.7986 16.4608 2.6786 17.1097 3.32744C17.7585 3.97628 18.6385 4.34078 19.5561 4.34078H28.1629C29.0803 4.34029 29.9605 3.97569 30.6092 3.32703C31.2584 2.67834 31.6235 1.79862 31.6244 0.881012H33.1094C33.7128 0.880837 34.3099 0.999493 34.8675 1.23021C35.4247 1.46092 35.9312 1.79916 36.3578 2.22563C36.7845 2.6521 37.1227 3.15844 37.3538 3.71572C37.5848 4.27299 37.7037 4.87033 37.7037 5.47355V44.3811H34.6907V41.4556C34.6907 40.7774 34.4211 40.127 33.942 39.6475C33.4624 39.1679 32.8119 38.8985 32.1336 38.8985H16.9657C16.2876 38.8985 15.6371 39.1679 15.1576 39.6475C14.678 40.127 14.4086 40.7774 14.4086 41.4556V47.0302C14.4086 47.7085 14.678 48.359 15.1576 48.8381C15.6371 49.3177 16.2876 49.5873 16.9657 49.5873H20.4242C20.5308 49.7618 20.6491 49.9292 20.7781 50.088C22.984 52.8134 26.4689 53.7326 28.7636 53.9134L29.2221 54.3813L29.127 54.5109H15.5463C14.3281 54.51 13.16 54.0255 12.2989 53.1642C11.4378 52.3024 10.9541 51.1337 10.9542 49.9157V28.7745ZM14.4122 28.7745V31.1382C14.4122 31.8164 14.6816 32.4668 15.1612 32.9464C15.6407 33.426 16.2912 33.6954 16.9693 33.6954H32.1359C32.8142 33.6954 33.4647 33.426 33.9442 32.9464C34.4234 32.4668 34.693 31.8164 34.693 31.1382V25.5637C34.693 24.8855 34.4234 24.235 33.9442 23.7555C33.4647 23.2759 32.8142 23.0065 32.1359 23.0065H16.9657C16.2876 23.0065 15.6371 23.2759 15.1576 23.7555C14.678 24.235 14.4086 24.8855 14.4086 25.5637L14.4122 28.7745Z" fill="#A7FF83"/>
<path d="M16.0963 0.881012H31.6244C31.6235 1.79862 31.2583 2.67834 30.6092 3.32703C29.9605 3.97569 29.0803 4.34029 28.1629 4.34078H19.5561C18.6385 4.34078 17.7585 3.97628 17.1097 3.32744C16.4608 2.6786 16.0963 1.7986 16.0963 0.881012Z" fill="#17B978"/>
<path d="M17.2515 54.5101H24.4626C24.2248 54.9641 24.0488 55.4481 23.9395 55.9488L23.8049 55.9412C22.7668 55.711 17.2515 54.5101 17.2515 54.5101Z" fill="#17B978"/>
<path d="M19.5202 26.5574C19.9687 26.557 20.4071 26.6897 20.7802 26.9386C21.1532 27.1875 21.444 27.5415 21.6159 27.9557C21.7877 28.3699 21.8328 28.8257 21.7455 29.2656C21.6582 29.7055 21.4424 30.1095 21.1254 30.4268C20.8084 30.7439 20.4044 30.96 19.9647 31.0475C19.5248 31.1351 19.0689 31.0903 18.6546 30.9187C18.2403 30.7471 17.8862 30.4565 17.6371 30.0836C17.388 29.7107 17.255 29.2723 17.2551 28.8238C17.2554 28.223 17.4941 27.6469 17.9187 27.2219C18.3434 26.797 18.9194 26.558 19.5202 26.5574Z" fill="white"/>
<path d="M14.2139 0.881012H15.5463C14.3284 0.88125 13.1605 1.36519 12.2993 2.22643C11.4382 3.08765 10.9544 4.25563 10.9542 5.47355V28.7745H9.62183V5.47355C9.62196 4.25563 10.1058 3.08765 10.9669 2.22643C11.8281 1.36519 12.996 0.88125 14.2139 0.881012Z" fill="#17B978"/>
<path d="M15.5462 54.5101H14.2138C12.9954 54.5101 11.8269 54.026 10.9653 53.1642C10.1037 52.3028 9.61964 51.1342 9.61951 49.9157V28.7745H10.9542V49.9157C10.9543 51.1337 11.438 52.3019 12.2991 53.1633C13.1602 54.0251 14.3282 54.5092 15.5462 54.5101Z" fill="#17B978"/>
<path d="M8.22253 41.7261V47.5402C8.22253 47.5402 6.14587 47.1845 3.3218 46.7143C0.49773 46.2442 0.495486 42.8562 2.00465 41.7261C3.51381 40.596 8.02828 41.7261 8.02828 41.7261H8.22253Z" fill="#FFE8BB"/>
<path d="M31.6244 0.881012H33.1093C33.7127 0.880837 34.3098 0.999493 34.8675 1.23021C35.4247 1.46092 35.9312 1.79916 36.3578 2.22563C36.7844 2.6521 37.1227 3.15844 37.3537 3.71572C37.5848 4.27299 37.7037 4.87033 37.7037 5.47355V49.9157" stroke="#17B978" stroke-width="0.10176" stroke-linecap="round" stroke-linejoin="round"/>
<path d="M15.8528 0.881012H16.0964" stroke="#17B978" stroke-width="0.10176" stroke-linecap="round" stroke-linejoin="round"/>
<path d="M14.2138 54.51C12.9954 54.51 11.8269 54.026 10.9653 53.1642C10.1037 52.3028 9.61964 51.1342 9.61951 49.9157V5.47355C9.61955 4.87033 9.73844 4.27299 9.96939 3.71572C10.2003 3.15844 10.5388 2.6521 10.9654 2.22563C11.392 1.79916 11.8985 1.46092 12.4559 1.23021C13.0132 0.999493 13.6106 0.880837 14.2138 0.881012" stroke="#17B978" stroke-width="0.10176" stroke-linecap="round" stroke-linejoin="round"/>
<path d="M29.1257 54.5101H24.4627H17.2516H15.8528" stroke="#17B978" stroke-width="0.10176" stroke-linecap="round" stroke-linejoin="round"/>
<path d="M15.5463 54.51C14.3283 54.5092 13.1603 54.0251 12.2992 53.1633C11.4381 52.3019 10.9544 51.1337 10.9542 49.9157V5.47355C10.9544 4.25563 11.4382 3.08765 12.2993 2.22643C13.1605 1.3652 14.3284 0.88125 15.5463 0.881012" stroke="#17B978" stroke-width="0.10176" stroke-linecap="round" stroke-linejoin="round"/>
<path d="M10.0194 53.7088C9.46292 53.3109 9.00954 52.7855 8.69699 52.1768C8.38448 51.5684 8.22185 50.8937 8.22266 50.2096V5.18015C8.22252 4.61533 8.33374 4.05599 8.54993 3.53416C8.76612 3.01237 9.08302 2.53825 9.48252 2.13898C9.88206 1.73971 10.3563 1.4231 10.8783 1.20725C11.4003 0.991401 11.9597 0.880542 12.5245 0.881013H15.855" stroke="#17B978" stroke-width="0.10176" stroke-linecap="round" stroke-linejoin="round"/>
<path d="M15.8527 54.51H12.5244C11.627 54.5118 10.752 54.2305 10.0233 53.707" stroke="#17B978" stroke-width="0.10176" stroke-linecap="round" stroke-linejoin="round"/>
<path d="M31.6244 0.881012C31.6235 1.79862 31.2583 2.67834 30.6092 3.32703C29.9605 3.97569 29.0803 4.34029 28.1629 4.34078H19.5561C18.6385 4.34078 17.7585 3.97628 17.1097 3.32744C16.4608 2.6786 16.0963 1.7986 16.0963 0.881012H31.6244Z" stroke="#17B978" stroke-width="0.10176" stroke-linecap="round" stroke-linejoin="round"/>
<path d="M20.4259 49.5864H16.9657C16.2875 49.5864 15.6371 49.3168 15.1575 48.8372C14.678 48.3581 14.4086 47.7076 14.4086 47.0293V41.4556C14.4086 40.7774 14.678 40.127 15.1575 39.6475C15.6371 39.1679 16.2875 38.8985 16.9657 38.8985H32.1322C32.8105 38.8985 33.461 39.1679 33.9406 39.6475C34.4197 40.127 34.6894 40.7774 34.6894 41.4556V47.0302C34.6898 47.3716 34.6212 47.7094 34.4875 48.0239" stroke="#17B978" stroke-width="0.10176" stroke-linecap="round" stroke-linejoin="round"/>
<path d="M26.7408 45.1823C25.9055 45.0051 23.8328 44.6265 22.6283 44.9176C21.6709 45.1518 19.6382 46.5829 20.0133 48.5492C20.0872 48.9166 20.2264 49.2679 20.4242 49.5864C20.5309 49.7609 20.6491 49.9283 20.7782 50.0871C22.984 52.8124 26.4689 53.7317 28.7636 53.9125L29.2221 54.3804C30.3374 55.5244 33.1637 58.418 33.9156 59.2255C33.9156 59.2255 36.108 67.8202 38.5328 70.245C41.814 73.528 43.6919 74.4642 45.8004 74.7783" stroke="#071A52" stroke-width="0.10176" stroke-linecap="round" stroke-linejoin="round"/>
<path d="M27.8848 45.2393C27.765 45.2469 27.6547 45.2545 27.5537 45.2621" stroke="#071A52" stroke-width="0.10176" stroke-linecap="round" stroke-linejoin="round"/>
<path d="M29.8358 45.3003C29.6985 45.2757 29.5666 45.2586 29.432 45.2451C28.9784 45.2012 28.5222 45.1953 28.0677 45.2281" stroke="#071A52" stroke-width="0.10176" stroke-linecap="round" stroke-linejoin="round"/>
<path d="M30.2561 45.3878C30.1915 45.3707 30.1287 45.3573 30.0659 45.3429" stroke="#071A52" stroke-width="0.10176" stroke-linecap="round" stroke-linejoin="round"/>
<path d="M30.69 45.5134C30.5931 45.4793 30.4962 45.4506 30.3988 45.4259" stroke="#071A52" stroke-width="0.10176" stroke-linecap="round" stroke-linejoin="round"/>
<path d="M40.722 51.9861C39.3941 51.4052 38.1294 50.6887 36.9477 49.8489C36.1182 49.2895 35.2694 48.6749 34.4624 48.058C33.859 47.5955 33.2785 47.1312 32.7513 46.6857C32.1856 46.2021 31.5387 45.8225 30.8406 45.5641L30.7034 45.5193" stroke="#071A52" stroke-width="0.10176" stroke-linecap="round" stroke-linejoin="round"/>
<path d="M36.9478 49.8507C36.9478 49.8507 37.2488 49.9081 37.6978 49.9651C38.6265 50.0849 40.1949 50.2105 41.0665 49.8507" stroke="#071A52" stroke-width="0.10176" stroke-linecap="round" stroke-linejoin="round"/>
<path d="M28.0018 45.2299C27.5106 45.7682 25.1392 47.5708 25.4447 49.8471" stroke="#071A52" stroke-width="0.10176" stroke-linecap="round" stroke-linejoin="round"/>
<path d="M20.0133 48.5497C20.9079 49.2194 23.1056 49.6263 23.9661 49.1432C23.9661 49.1432 24.4726 46.5645 25.6103 45.7063" stroke="#071A52" stroke-width="0.10176" stroke-linecap="round" stroke-linejoin="round"/>
<path d="M67 86.1189C67 86.1189 67 83.8861 65.3917 79.8831C64.0405 76.5144 57.3793 66.4348 55.3067 60.6646C53.3139 55.1147 50.5011 48.193 48.708 44.3824C48.6375 44.2281 48.5671 44.0818 48.4989 43.9387C46.7228 40.2389 43.4667 31.6555 41.3941 28.1024C39.3215 24.5493 37.7037 24.0549 37.7037 24.0549" stroke="#071A52" stroke-width="0.10176" stroke-linecap="round" stroke-linejoin="round"/>
<path d="M42.2142 79.6499L42.1913 79.6423V79.6459C42.2142 79.7356 42.7166 81.6996 43.0517 83.5018C43.2469 84.3604 43.3397 85.2388 43.3294 86.119" stroke="#071A52" stroke-width="0.10176" stroke-linecap="round" stroke-linejoin="round"/>
<path d="M23.3152 61.1941C23.2542 61.5018 23.2286 61.815 23.2389 62.1286C23.2389 62.2259 23.2448 62.3228 23.2524 62.4197C23.316 63.1223 23.5751 63.793 24.0002 64.3555C24.8526 65.4843 26.294 67.2805 27.1159 67.665C27.1159 67.665 35.2543 77.8487 39.0075 78.8276C41.4682 79.4691 42.0716 79.6194 42.1927 79.6459C42.1994 79.6477 42.2066 79.649 42.2138 79.6499C42.2165 79.6503 42.2187 79.6503 42.2214 79.6499" stroke="#071A52" stroke-width="0.10176" stroke-linecap="round" stroke-linejoin="round"/>
<path d="M23.2387 62.4197C23.2387 62.4197 18.9625 61.9262 16.6651 61.194C16.6651 61.194 13.0052 60.2349 11.9851 59.7952C11.9851 59.7952 5.59044 57.422 3.97451 56.4876C2.35858 55.5531 3.12213 51.6362 6.35714 52.5724C8.26243 53.1224 9.94117 53.6801 10.0192 53.707" stroke="#071A52" stroke-width="0.10176" stroke-linecap="round" stroke-linejoin="round"/>
<path d="M11.4827 55.7509C11.4827 55.7509 11.2584 56.7594 11.2032 57.2641" stroke="#071A52" stroke-width="0.10176" stroke-linecap="round" stroke-linejoin="round"/>
<path d="M17.383 56.7025C17.383 56.7025 17.1587 58.2821 17.103 58.7868" stroke="#071A52" stroke-width="0.10176" stroke-linecap="round" stroke-linejoin="round"/>
<path d="M42.1913 79.6423C42.1913 79.6423 43.246 79.6593 43.9158 79.6423L43.0535 83.5004" stroke="#071A52" stroke-width="0.10176" stroke-linecap="round" stroke-linejoin="round"/>
<path d="M8.02824 41.7262C8.02824 41.7262 3.51018 40.5957 2.00461 41.7262C0.499039 42.8567 0.497245 46.2442 3.32176 46.7144C6.14628 47.1846 8.22249 47.5403 8.22249 47.5403" stroke="#071A52" stroke-width="0.10176" stroke-linecap="round" stroke-linejoin="round"/>
<rect x="13.9726" y="5.63017" width="21.0462" height="31.6192" fill="white" stroke="#086972" stroke-width="0.1"/>
<path d="M25.228 27.455C25.228 27.455 25.0802 20.2162 31.2527 16.6611C31.2527 16.6611 31.3383 23.5007 25.228 27.455Z" fill="#086972"/>
<path d="M25.6906 26.77C25.6786 26.77 25.6668 26.7669 25.6563 26.761C25.6459 26.7551 25.6372 26.7465 25.631 26.7362C25.6249 26.7259 25.6216 26.7141 25.6213 26.7021C25.6211 26.6901 25.6241 26.6783 25.6298 26.6678L30.6283 17.541C30.6371 17.5248 30.6519 17.5129 30.6695 17.5077C30.6871 17.5025 30.7061 17.5045 30.7222 17.5133C30.7383 17.5221 30.7503 17.537 30.7555 17.5546C30.7606 17.5722 30.7586 17.5911 30.7498 17.6073L25.7514 26.7341C25.7454 26.745 25.7366 26.754 25.7259 26.7604C25.7152 26.7667 25.703 26.77 25.6906 26.77Z" fill="#17B978"/>
<path d="M24.6092 26.2589C24.6092 26.2589 23.0899 19.1804 28.4765 14.519C28.4765 14.519 29.8577 21.2176 24.6092 26.2589Z" fill="#17B978"/>
<path d="M24.9145 25.4992H24.8938C24.8764 25.4936 24.862 25.4812 24.8537 25.4649C24.8454 25.4486 24.8439 25.4296 24.8496 25.4122L28.0263 15.5023C28.029 15.4932 28.0335 15.4848 28.0395 15.4775C28.0455 15.4701 28.0528 15.464 28.0612 15.4595C28.0695 15.4551 28.0786 15.4523 28.0881 15.4513C28.0975 15.4503 28.107 15.4512 28.1161 15.454C28.1251 15.4567 28.1336 15.4612 28.1409 15.4672C28.1482 15.4731 28.1543 15.4805 28.1588 15.4888C28.1633 15.4972 28.1661 15.5063 28.1671 15.5157C28.168 15.5252 28.1671 15.5347 28.1644 15.5437L24.9877 25.4537C24.9825 25.4684 24.9724 25.481 24.9591 25.4893C24.9458 25.4976 24.9301 25.5011 24.9145 25.4992Z" fill="#086972"/>
<path d="M24.7225 27.8335C24.7225 27.8335 24.0899 21.8419 18.6218 19.5464C18.6218 19.5519 19.2655 25.2078 24.7225 27.8335Z" fill="#086972"/>
<path d="M24.2625 27.328C24.2515 27.328 24.2405 27.3254 24.2307 27.3204C24.2208 27.3153 24.2123 27.308 24.2059 27.299L19.1259 20.2867C19.1206 20.2794 19.1167 20.2711 19.1146 20.2622C19.1125 20.2534 19.1121 20.2442 19.1135 20.2352C19.1149 20.2263 19.1181 20.2177 19.1228 20.2099C19.1276 20.2022 19.1338 20.1954 19.1411 20.1901C19.1485 20.1847 19.1568 20.1809 19.1656 20.1787C19.1745 20.1766 19.1836 20.1762 19.1926 20.1776C19.2016 20.179 19.2102 20.1822 19.218 20.1869C19.2257 20.1917 19.2325 20.1979 19.2378 20.2052L24.3178 27.2189C24.3251 27.2291 24.3294 27.2412 24.3304 27.2537C24.3313 27.2663 24.3288 27.2789 24.3231 27.2901C24.3174 27.3013 24.3088 27.3108 24.2981 27.3175C24.2874 27.3242 24.2751 27.3278 24.2625 27.328Z" fill="#17B978"/>
<path d="M24.4048 26.5849C24.4048 26.5849 29.3024 19.1818 25.2335 11.4541C25.2349 11.4541 20.6646 18.4843 24.4048 26.5849Z" fill="#086972"/>
<path d="M24.42 25.5697C24.411 25.5692 24.4021 25.5669 24.3939 25.5629C24.3857 25.559 24.3784 25.5534 24.3724 25.5466C24.3663 25.5398 24.3617 25.5319 24.3587 25.5233C24.3558 25.5147 24.3546 25.5056 24.3551 25.4965L25.1534 12.758C25.154 12.7489 25.1563 12.74 25.1603 12.7319C25.1642 12.7237 25.1698 12.7164 25.1766 12.7104C25.1834 12.7043 25.1913 12.6997 25.1999 12.6967C25.2085 12.6938 25.2176 12.6925 25.2266 12.6931C25.2357 12.6936 25.2446 12.6959 25.2527 12.6999C25.2609 12.7039 25.2682 12.7094 25.2743 12.7162C25.2803 12.723 25.2849 12.7309 25.2879 12.7395C25.2908 12.7481 25.2921 12.7572 25.2915 12.7663L24.4891 25.4993C24.4893 25.5085 24.4876 25.5176 24.4842 25.5262C24.4808 25.5347 24.4758 25.5425 24.4694 25.549C24.4629 25.5556 24.4552 25.5608 24.4468 25.5644C24.4383 25.5679 24.4292 25.5697 24.42 25.5697Z" fill="#17B978"/>
<path d="M24.1948 26.328C24.1948 26.328 25.7141 19.2495 20.3276 14.588C20.3276 14.588 18.9464 21.2867 24.1948 26.328Z" fill="#17B978"/>
<path d="M23.8841 25.5684C23.8693 25.5684 23.8549 25.5638 23.843 25.5551C23.8311 25.5464 23.8222 25.5341 23.8178 25.52L20.6411 15.6101C20.6384 15.601 20.6375 15.5915 20.6384 15.5821C20.6394 15.5727 20.6422 15.5635 20.6467 15.5552C20.6512 15.5469 20.6573 15.5395 20.6646 15.5335C20.6719 15.5275 20.6804 15.523 20.6894 15.5203C20.6985 15.5176 20.708 15.5167 20.7174 15.5176C20.7269 15.5186 20.736 15.5214 20.7443 15.5259C20.7527 15.5304 20.7601 15.5365 20.766 15.5438C20.772 15.5511 20.7765 15.5596 20.7792 15.5687L23.9559 25.4786C23.9616 25.496 23.9601 25.5149 23.9518 25.5312C23.9435 25.5475 23.9291 25.5599 23.9117 25.5656L23.8841 25.5684Z" fill="#086972"/>
<path d="M29.1271 25.8335L28.2639 33.1303H20.5983L19.7351 25.8335C22.8389 25.2534 26.0233 25.2534 29.1271 25.8335Z" fill="#A7FF83"/>
<path d="M26.8026 29.3555C25.4103 29.5047 25.1106 29.7243 24.7653 31.2657C24.5885 32.053 23.8855 32.6924 23.235 33.1303H24.7391C25.3019 32.6407 25.6639 31.9604 25.7556 31.2201C25.9518 29.7934 26.9531 29.908 28.0346 30.0351C28.2315 30.0595 28.4304 30.0655 28.6285 30.053L28.7818 28.7575C28.3895 29.1276 27.7362 29.2547 26.8026 29.3555Z" fill="#086972"/>
<path d="M23.6133 29.5627C23.5677 28.0089 23.7169 27.3873 25.7776 27.3418C27.1132 27.3114 27.6588 26.3252 27.8798 25.6346C27.4921 25.5822 27.1045 25.5361 26.7168 25.4965C26.5649 26.0573 26.0608 26.77 24.4669 26.7133C21.8661 26.6208 23.42 29.0268 22.1299 29.7975C21.3648 30.2547 20.6397 29.9135 20.1783 29.5613L20.3165 30.7574C21.6921 31.6731 23.6561 30.9895 23.6133 29.5627Z" fill="#086972"/>
<path d="M21.4726 27.7202C20.9367 27.8583 20.6549 28.9743 21.4961 28.9743C22.3372 28.9743 22.3704 27.4909 21.4726 27.7202Z" fill="#086972"/>
</svg>
