<svg width="64" height="81" viewBox="0 0 64 81" fill="none" xmlns="http://www.w3.org/2000/svg">
<path d="M53.6045 37.4291V4.58832C53.6032 3.63704 53.2247 2.72496 52.5521 2.05237C51.8794 1.37962 50.9675 1.00127 50.0162 1H4.15045C3.20052 1.00333 2.29059 1.38264 1.61965 2.05507C0.948691 2.7275 0.571322 3.63831 0.570068 4.58832V69.7034C0.571322 70.654 0.949992 71.5653 1.62284 72.2369C2.29568 72.9086 3.20767 73.2857 4.15839 73.2854H50.0241C50.469 73.2884 50.9102 73.2038 51.3223 73.0362" stroke="#086972" stroke-linecap="round" stroke-linejoin="round"/>
<path d="M49.0401 3.1976H5.13441C3.50236 3.1976 2.17932 4.52072 2.17932 6.15269V68.1428C2.17932 69.775 3.50236 71.0979 5.13441 71.0979H49.0401C50.6722 71.0979 51.9952 69.775 51.9952 68.1428V6.15269C51.9952 4.52072 50.6722 3.1976 49.0401 3.1976Z" fill="#A7FF83"/>
<path d="M48.1292 8.45294H6.58973C5.7737 8.45294 5.11218 9.11442 5.11218 9.93048V19.6877C5.11218 20.5036 5.7737 21.1652 6.58973 21.1652H48.1292C48.9452 21.1652 49.6067 20.5036 49.6067 19.6877V9.93048C49.6067 9.11442 48.9452 8.45294 48.1292 8.45294Z" fill="#A7FF83"/>
<path d="M27.0865 13.8077C27.8131 13.8077 28.4022 13.2185 28.4022 12.492C28.4022 11.7653 27.8131 11.1763 27.0865 11.1763C26.36 11.1763 25.7709 11.7653 25.7709 12.492C25.7709 13.2185 26.36 13.8077 27.0865 13.8077Z" fill="#086972"/>
<path d="M23.414 18.4417C23.4038 17.9529 23.4913 17.4671 23.6714 17.0124C23.8514 16.5578 24.1204 16.1438 24.4624 15.7946C24.8046 15.4453 25.2129 15.1677 25.6636 14.9784C26.1144 14.7889 26.5983 14.6913 27.0872 14.6913C27.5762 14.6913 28.0601 14.7889 28.5108 14.9784C28.9615 15.1677 29.3699 15.4453 29.712 15.7946C30.0541 16.1438 30.3231 16.5578 30.503 17.0124C30.6832 17.4671 30.7706 17.9529 30.7605 18.4417H23.414Z" fill="#086972"/>
<path d="M9.56226 26.8404H44.1584" stroke="white" stroke-width="5.4" stroke-miterlimit="10"/>
<path d="M9.56226 30.2463H44.1584" stroke="white" stroke-width="5.4" stroke-miterlimit="10"/>
<path d="M9.56226 52.1761H44.1584" stroke="white" stroke-width="5.4" stroke-miterlimit="10"/>
<path d="M17.5975 55.3961H36.1232" stroke="white" stroke-width="5.4" stroke-miterlimit="10"/>
<path d="M18.3292 43.1168L15.5693 46.0497C15.3455 46.2876 15.077 46.4791 14.7791 46.6132C14.4812 46.7473 14.16 46.8215 13.8334 46.8315C13.5069 46.8415 13.1818 46.787 12.8763 46.6712C12.5707 46.5555 12.2911 46.3806 12.0532 46.1568C11.8153 45.933 11.6238 45.6645 11.4896 45.3666C11.3555 45.0687 11.2814 44.7475 11.2714 44.4209C11.2614 44.0944 11.316 43.7692 11.4317 43.4637C11.5474 43.1582 11.7223 42.8786 11.9461 42.6407L14.7044 39.7078L18.3292 43.1168Z" fill="white"/>
<path d="M21.0859 40.1812L18.326 43.1173L14.7012 39.7083L17.4626 36.7738C17.9156 36.2949 18.5398 36.0146 19.1989 35.9943C19.8578 35.9741 20.498 36.2155 20.9795 36.6659C21.4568 37.1196 21.7356 37.7435 21.7554 38.4017C21.7754 39.06 21.5348 39.6994 21.0859 40.1812Z" fill="#086972"/>
<path d="M31.8128 38.2701C31.6953 37.7019 32.8602 36.7624 33.2411 36.5577C34.6583 35.8149 36.8389 36.3752 37.615 37.794C39.3973 41.0474 34.3901 45.6848 31.8048 46.8307C31.508 46.5926 24.4346 41.3014 26.0914 37.9146C27.7483 34.5278 31.4017 36.2482 31.8128 38.2701Z" fill="#086972"/>
<path d="M50.7272 81C57.7427 81 63.4299 75.3128 63.4299 68.2973C63.4299 61.2817 57.7427 55.5945 50.7272 55.5945C43.7116 55.5945 38.0244 61.2817 38.0244 68.2973C38.0244 75.3128 43.7116 81 50.7272 81Z" fill="white"/>
<path d="M50.7272 78.0802C56.13 78.0802 60.5097 73.7004 60.5097 68.2976C60.5097 62.8948 56.13 58.515 50.7272 58.515C45.3244 58.515 40.9446 62.8948 40.9446 68.2976C40.9446 73.7004 45.3244 78.0802 50.7272 78.0802Z" fill="#A7FF83"/>
<path d="M50.3616 66.3669L50.8516 66.2673C50.8515 66.2672 50.8515 66.2671 50.8515 66.267C50.8409 66.215 50.8555 66.1165 50.9439 65.9635C51.0282 65.8175 51.1592 65.6574 51.3139 65.4995C51.6256 65.1816 51.993 64.9135 52.159 64.826C52.8015 64.4898 53.6337 64.4419 54.4049 64.6533C55.1762 64.8646 55.8505 65.325 56.199 65.9608C56.605 66.7026 56.6309 67.5316 56.3846 68.3959C56.1372 69.264 55.6179 70.1555 54.9538 70.995C53.67 72.618 51.8876 73.995 50.6417 74.587C50.18 74.2285 48.5973 72.9817 47.2034 71.433C46.4119 70.5535 45.6934 69.5897 45.2742 68.6482C44.8544 67.7054 44.7508 66.8239 45.1193 66.0714C45.5138 65.2658 46.0159 64.7837 46.5388 64.5288C47.0625 64.2736 47.6275 64.2363 48.1648 64.3556C49.2572 64.5981 50.1795 65.471 50.3613 66.3656C50.3614 66.3661 50.3615 66.3665 50.3616 66.3669Z" fill="white" stroke="#086972" stroke-width="0.5"/>
</svg>
