<svg width="327" height="223" viewBox="0 0 327 223" fill="none" xmlns="http://www.w3.org/2000/svg">
<g style="mix-blend-mode:overlay" opacity="0.5" clip-path="url(#clip0_27_74)">
<g opacity="0.504511">
<path fill-rule="evenodd" clip-rule="evenodd" d="M302.024 168.764C306.21 193.099 204.71 208.971 117.346 197.894C29.983 186.817 -10.0951 143.56 31.5932 120.511C73.2813 97.4619 297.839 144.43 302.024 168.764Z" fill="#071A52"/>
</g>
<path fill-rule="evenodd" clip-rule="evenodd" d="M176.464 67.3619C178.043 66.4234 180.493 67.0213 182.083 67.5753C182.696 67.7888 184.261 68.472 185.422 69.2409C185.269 68.7081 185.132 68.1704 185.012 67.6284C184.522 65.4 184.183 63.129 184.021 60.8715C183.978 60.2824 184.033 59.6247 184.089 58.9581V58.957C184.108 58.7315 184.127 58.505 184.143 58.2798C184.079 58.2267 184.036 58.1531 184.018 58.0536C184.011 58.095 184.007 58.128 184.005 58.1534C184 58.1945 183.997 58.215 183.989 58.2165C183.98 58.2182 183.966 58.2009 183.936 58.1658C183.925 58.1524 183.912 58.1361 183.895 58.1173C182.72 56.7512 181.733 55.2113 181.598 53.5188C181.483 52.0836 183 49.3677 185.15 51.2478C186.112 52.0875 185.862 57.9846 184.417 58.3457C184.803 60.2998 185.288 62.2507 185.896 64.1765C185.988 64.1641 186.08 64.1631 186.172 64.1726C186.163 63.694 186.162 63.1715 186.188 62.9916C186.404 61.4439 188.067 58.3018 190.714 58.9117C192.747 59.3808 191.501 61.3108 190.808 62.1555C189.694 63.5156 188.434 64.1043 186.838 64.8116C186.806 65.104 186.564 65.2739 186.278 65.3291C187.346 68.4394 188.75 71.4729 190.588 74.3386L190.637 74.1563C190.87 73.2865 191.142 72.2726 191.314 72.0595C192.215 70.9448 194.209 69.5832 196.047 70.2428C199.908 71.6301 195.717 75.6169 192.43 76.0506C192.293 76.1975 192.149 76.3157 191.995 76.3834C192.634 77.2482 193.316 78.0953 194.047 78.9205C195.142 80.1617 196.32 81.3986 197.554 82.6287C197.592 81.6665 198.08 79.5223 198.219 79.2919C199.062 77.8928 201.491 76.4531 203.462 77.4471C205.679 78.5679 203.669 80.6852 202.405 81.6435C201.886 82.0365 199.323 83.4766 198.419 83.4829C201.401 86.3833 204.692 89.2338 208.039 91.9816C207.761 90.7514 207.399 87.3643 207.44 86.9883C207.647 85.0477 209.287 81.9437 212.518 82.7002C215.652 83.4327 214.265 86.657 213.192 88.1941C212.542 89.1244 211.644 90.0696 210.56 90.7185C210.365 90.8353 210.11 90.9309 209.855 91.0261C209.548 91.1408 209.242 91.2555 209.042 91.4074C208.863 91.5426 208.808 91.698 208.754 91.852C208.697 92.0145 208.64 92.1756 208.439 92.3105C210.247 93.7888 212.068 95.2363 213.863 96.6438C214.71 97.308 215.573 97.9593 216.444 98.6026C216.92 98.4489 217.6 98.6511 217.564 99.176C217.559 99.2522 217.536 99.318 217.506 99.3782C218.166 99.8557 218.83 100.33 219.499 100.799C219.484 100.663 219.488 100.47 219.519 100.204C219.037 100.737 219.057 99.9602 219.073 99.3679C219.078 99.1587 219.083 98.9728 219.065 98.8755C218.994 98.4949 218.903 98.1183 218.811 97.742C218.616 96.9384 218.421 96.1376 218.43 95.3082C218.451 93.5477 219.884 90.5967 222.901 91.6453C225.674 92.6071 224.665 95.2161 223.619 96.852C222.956 97.8871 222.05 98.8114 221.103 99.6961C220.934 99.854 220.747 100.068 220.561 100.28C220.286 100.594 220.014 100.904 219.813 101.019C222.388 102.815 225.024 104.557 227.66 106.3L227.661 106.301C228.841 107.081 230.021 107.862 231.196 108.647C231.248 108.475 231.29 108.304 231.326 108.144C231.253 108.209 231.152 108.239 231.024 108.233C230.99 108.101 230.941 107.925 230.881 107.714C230.155 105.14 227.945 97.298 233.93 98.8178C238.316 99.9343 235.22 106.762 231.949 109.151C233.935 110.484 235.9 111.835 237.82 113.226C239.21 114.233 240.558 115.273 241.855 116.349C241.184 114.956 240.552 113.153 240.967 111.718C241.571 109.63 244.403 107.659 247.167 108.847C250.613 110.334 247.962 112.366 245.476 114.272C244.206 115.244 242.98 116.184 242.63 117.002C246.753 120.53 250.273 124.45 252.625 128.915C255.183 133.771 257.558 140.296 256.244 145.728C256.487 143.339 255.45 140.34 254.721 138.234C254.622 137.947 254.529 137.677 254.445 137.427C253.351 134.16 251.796 130.981 249.748 128.006C246.466 123.241 242.131 119.196 237.127 115.523C235.987 115.832 234.749 116.404 233.724 116.878C233.096 117.169 232.547 117.423 232.15 117.556C230.235 118.199 226.558 119.12 225.339 117.095C224.139 115.104 227.201 113.991 229.098 113.544C230.932 113.114 232.585 113.166 234.295 113.519C231.646 111.691 228.933 109.921 226.22 108.152L226.22 108.152C225.72 107.826 225.222 107.501 224.723 107.175C224.033 107.615 223.272 108.251 222.463 108.926C219.896 111.07 216.855 113.61 214.14 111.535C210.041 108.404 217.88 105.221 221.219 105.47C221.629 105.5 222.026 105.567 222.413 105.659C219.007 103.409 215.654 101.112 212.483 98.6546C211.914 98.7357 211.008 99.387 209.92 100.17C207.474 101.93 204.107 104.352 201.571 102.445C199.74 101.068 200.367 98.9236 202.136 97.6977C203.913 96.4665 206.489 96.4686 208.678 96.8832C209.625 97.0616 210.498 97.4021 211.311 97.817C211.346 97.8184 211.379 97.8198 211.413 97.8213C208.292 95.3772 205.153 92.8783 202.129 90.294C202.076 90.3071 202.022 90.3209 201.968 90.3347C201.785 90.5089 201.479 90.5726 201.199 90.534C201.044 90.5755 200.886 90.618 200.725 90.6611C198.33 91.3044 195.252 92.1313 192.864 91.7748C191.107 91.5122 189.513 90.4006 191.001 89.032C192.209 87.919 195.49 88.0787 197.09 88.3424C197.87 88.4712 198.72 88.8444 199.573 89.2189C199.931 89.3761 200.29 89.5336 200.644 89.6735C200.736 89.529 200.897 89.4363 201.08 89.3917C198.094 86.7947 195.245 84.1081 192.661 81.3047C191.879 81.3989 191.011 81.6665 190.116 81.9423C187.963 82.6061 185.652 83.3183 183.994 81.7841C181.546 79.5191 186.15 78.1969 188.339 78.4122C189.078 78.4847 189.807 78.6476 190.51 78.8632C188.63 76.555 187.194 74.088 186.185 71.4967C186.175 71.5005 186.166 71.5044 186.157 71.5083V71.5087C186.143 71.5147 186.128 71.5211 186.111 71.5271C186.126 71.5204 186.14 71.514 186.153 71.5073C186.163 71.5023 186.172 71.4974 186.183 71.4924C186.082 71.2333 185.986 70.9731 185.894 70.7115C185.723 70.6375 185.563 70.583 185.487 70.5607C186.481 71.0941 182.286 71.3554 181.5 71.4043C179.763 71.5122 177.436 71.5526 176.162 70.4449C175.091 69.5146 175.154 68.1403 176.464 67.3619ZM256.431 145.736C256.357 146.523 256.174 147.244 255.833 147.838C256.089 147.162 256.285 146.458 256.431 145.736Z" fill="#071A52"/>
<path opacity="0.2" fill-rule="evenodd" clip-rule="evenodd" d="M97.5977 17.0847C96.445 16.4066 94.6561 16.8398 93.4947 17.2408C93.0475 17.3954 91.9039 17.8899 91.0559 18.4462C91.1684 18.0607 91.2686 17.672 91.356 17.28C91.7158 15.6684 91.9636 14.0263 92.0838 12.3937C92.1148 11.9679 92.0747 11.4922 92.0341 11.0103V11.0099C92.0205 10.8467 92.0068 10.6829 91.9959 10.5199C92.0423 10.4814 92.0738 10.4282 92.087 10.3562C92.0915 10.3861 92.0943 10.41 92.0965 10.4283C92.1002 10.458 92.1015 10.4729 92.1079 10.4741C92.1138 10.4753 92.1248 10.4627 92.1462 10.4374C92.1544 10.4276 92.1644 10.4159 92.1762 10.4023C93.0347 9.414 93.7561 8.3004 93.8559 7.07653C93.9401 6.03855 92.8343 4.07512 91.2636 5.43525C90.5608 6.04269 90.7403 10.3067 91.795 10.5677C91.5122 11.9807 91.157 13.3915 90.7125 14.7843C90.646 14.7753 90.5781 14.7745 90.5112 14.7816C90.5176 14.4354 90.5185 14.0575 90.5002 13.9276C90.3427 12.8085 89.1303 10.5369 87.1979 10.9788C85.7127 11.3184 86.6218 12.7136 87.1269 13.3242C87.9394 14.3074 88.8593 14.7328 90.0243 15.2438C90.0475 15.4551 90.2247 15.5779 90.4333 15.6178C89.6518 17.8672 88.6252 20.0612 87.2822 22.1337L87.2466 22.002C87.0763 21.3731 86.8782 20.64 86.7525 20.486C86.0958 19.6802 84.6407 18.6963 83.298 19.1737C80.478 20.1779 83.5362 23.0596 85.9364 23.3722C86.0361 23.4784 86.1413 23.5637 86.2538 23.6127C85.787 24.2383 85.2883 24.8509 84.7545 25.4478C83.9539 26.3456 83.094 27.2405 82.1923 28.1302C82.1649 27.4345 81.8092 25.8842 81.7081 25.7177C81.0933 24.7062 79.3203 23.666 77.8807 24.3852C76.2612 25.1962 77.7281 26.7268 78.6508 27.4194C79.0288 27.7033 80.8997 28.7438 81.5601 28.7482C79.3813 30.8465 76.9767 32.9085 74.5319 34.8963C74.735 34.0067 75.001 31.5573 74.9718 31.2854C74.8211 29.8823 73.6251 27.6384 71.2664 28.1862C68.9774 28.7169 69.9885 31.0479 70.7709 32.1591C71.245 32.8317 71.9004 33.515 72.6915 33.9837C72.834 34.0683 73.0203 34.1369 73.2061 34.206C73.4302 34.2888 73.6538 34.3717 73.8 34.4814C73.9303 34.5791 73.9703 34.6913 74.0095 34.8028C74.0514 34.9204 74.0928 35.0368 74.24 35.1342C72.9187 36.2036 71.5884 37.2511 70.2772 38.2693C69.6583 38.7496 69.0284 39.2212 68.3922 39.6864C68.0443 39.5756 67.5483 39.7218 67.5738 40.1012C67.5774 40.1565 67.5943 40.2039 67.6162 40.2475C67.1343 40.593 66.6493 40.936 66.1601 41.2755C66.1715 41.1767 66.1683 41.0372 66.146 40.845C66.4976 41.2305 66.483 40.6687 66.4721 40.2407C66.4685 40.0892 66.4648 39.9547 66.478 39.8846C66.5299 39.6092 66.5974 39.3369 66.6643 39.0647C66.8073 38.4838 66.9499 37.9043 66.943 37.3046C66.9285 36.0319 65.8837 33.8983 63.6808 34.6573C61.6555 35.3537 62.391 37.2402 63.1543 38.4226C63.637 39.1709 64.2983 39.8389 64.9897 40.4786C65.1126 40.5926 65.2497 40.7473 65.385 40.9002C65.5858 41.1275 65.7839 41.3512 65.9306 41.4348C64.0497 42.7336 62.125 43.9946 60.1999 45.2556H60.1994L60.199 45.2559C59.3364 45.8209 58.4743 46.3856 57.6158 46.9537C57.5789 46.8291 57.5479 46.7056 57.5215 46.5898C57.5752 46.6366 57.6481 46.6585 57.7419 46.6543C57.767 46.5587 57.803 46.4316 57.8467 46.279C58.3777 44.4173 59.9954 38.7461 55.6246 39.8471C52.422 40.6556 54.6787 45.5922 57.0656 47.3184C55.616 48.283 54.1795 49.2605 52.7773 50.2669C51.7621 50.9947 50.7775 51.7481 49.8297 52.5262C50.3207 51.5187 50.7829 50.2149 50.4805 49.1773C50.0406 47.6678 47.9738 46.2429 45.9549 47.1028C43.4377 48.1797 45.3729 49.6477 47.1873 51.0248C48.1136 51.7279 49.0086 52.4072 49.2636 52.9984C46.2518 55.5508 43.6796 58.3864 41.9603 61.6156C40.0903 65.1277 38.3533 69.8463 39.3097 73.7743C39.1339 72.0471 39.8922 69.8778 40.425 68.3545C40.4979 68.147 40.5662 67.9516 40.6273 67.7707C41.4279 65.4081 42.5647 63.1092 44.0617 60.9575C46.46 57.5109 49.627 54.5847 53.2828 51.9275C54.1144 52.1506 55.018 52.564 55.7663 52.9064C56.2249 53.1163 56.6257 53.2997 56.9153 53.396C58.313 53.8604 60.9969 54.5256 61.8886 53.0611C62.7653 51.6206 60.5305 50.8163 59.1456 50.4942C57.8071 50.1833 56.6002 50.2216 55.3509 50.4772C57.286 49.155 59.2681 47.8742 61.2497 46.5941C61.6145 46.3587 61.9788 46.1232 62.3427 45.8875C62.8464 46.2054 63.402 46.6652 63.9923 47.1534C65.8655 48.7025 68.0843 50.5381 70.0682 49.0367C73.0622 46.7714 67.3406 44.4725 64.9022 44.6534C64.6026 44.6754 64.3129 44.7242 64.0305 44.7904C66.5186 43.1623 68.9674 41.501 71.2842 39.7228C71.6996 39.7812 72.3608 40.2521 73.1547 40.8178H73.1551C74.94 42.0893 77.397 43.8399 79.2497 42.46C80.5869 41.4642 80.1305 39.914 78.8389 39.0279C77.5423 38.1379 75.6618 38.1404 74.0628 38.441C73.3719 38.5702 72.7343 38.8166 72.14 39.1168C72.1145 39.1178 72.0903 39.1189 72.0662 39.1199C74.3456 37.3517 76.6387 35.5438 78.848 33.6743C78.8863 33.6838 78.9259 33.6937 78.9655 33.7036C79.099 33.8297 79.3226 33.8757 79.5271 33.8477C79.6391 33.8771 79.7534 33.9076 79.87 33.9387L79.8727 33.9394C81.6211 34.4039 83.8687 35.0011 85.6116 34.7423C86.8946 34.5522 88.0591 33.7479 86.9738 32.7584C86.0917 31.9541 83.6965 32.0706 82.5284 32.2618C81.9582 32.3552 81.3374 32.6253 80.7148 32.8962C80.453 33.0101 80.1911 33.1241 79.9319 33.2254C79.865 33.121 79.748 33.0537 79.6145 33.0215C81.7956 31.1428 83.8774 29.1994 85.7656 27.1715C86.3362 27.2395 86.9697 27.4326 87.6228 27.6318C89.1945 28.1111 90.8814 28.6254 92.0929 27.5157C93.8814 25.8771 90.5203 24.9224 88.9222 25.0786C88.3825 25.1313 87.8501 25.2494 87.3364 25.4053C88.7104 23.7358 89.7602 21.9515 90.4984 20.0776C90.5053 20.0803 90.5121 20.0832 90.5185 20.0861C90.5289 20.0905 90.5394 20.095 90.5522 20.0993C90.5408 20.0947 90.5312 20.0899 90.5216 20.0851C90.5144 20.0815 90.5071 20.0779 90.4993 20.0745C90.5731 19.887 90.6437 19.6987 90.7111 19.5097C90.8359 19.4561 90.9525 19.4166 91.0085 19.4004C90.2821 19.7865 93.3453 19.9741 93.9187 20.0093C95.1871 20.0868 96.8859 20.1153 97.8172 19.3141C98.5987 18.6411 98.5536 17.6472 97.5977 17.0847ZM39.1198 73.6193C39.1758 74.1439 39.342 74.6225 39.6699 75.0148C39.4295 74.5666 39.2491 74.0997 39.1198 73.6193Z" fill="#212121"/>
<g opacity="0.7">
<path fill-rule="evenodd" clip-rule="evenodd" d="M222.17 109.636C228.387 109.386 236.077 112.207 236.74 117.46C237.222 121.277 237.073 125.083 237.819 128.895C238.415 131.941 239.676 134.865 241.396 137.64C243.05 140.308 246.481 142.579 247.373 145.429C247.942 147.246 247.624 149.801 246.84 151.577C245.886 153.737 246.393 153.567 248.293 155.379C252.017 158.931 255.371 162.573 257.743 166.815C261.158 172.925 263.398 180.068 262.13 186.756C261.969 187.605 261.778 190.653 260.273 190.866C258.592 191.104 259.379 189.361 259.468 188.798C260.04 185.205 260.548 182.065 259.858 178.416C257.197 164.337 244.203 155.061 235.742 143.111C235.277 142.495 234.295 141.028 233.613 140.06C232.534 138.531 231.451 135.623 229.992 134.49C227.244 132.355 229.77 136.647 230.306 137.466C230.983 138.503 231.727 139.605 232.422 140.513C235.596 144.722 239.139 149.317 242.417 153.657C228.238 156.168 218.253 142.918 214.447 134.207C211.312 127.03 207.561 110.25 222.17 109.636Z" fill="#A7FF83"/>
<path fill-rule="evenodd" clip-rule="evenodd" d="M305.506 96.3082C295.112 96.9493 288.439 102.281 285.333 109.737C283.659 113.756 283.467 117.884 282.536 122.014C281.137 128.227 278.126 132.935 272.241 137.362C270.418 138.732 269.075 140.14 268.12 141.646C266.225 143.149 264.575 144.851 263.362 146.931C261.814 149.587 261.376 152.775 263.163 155.423C263.644 156.135 264.843 157.564 266.086 158.214C261.433 165.917 258.874 174.354 259.163 182.78C259.337 187.866 259.656 192.954 260.029 198.034C260.13 199.398 260.701 201.651 261.559 199.363C262.345 197.27 261.36 193.986 261.269 191.8C260.825 181.151 260.446 171.469 266.085 161.52C266.677 160.477 267.304 159.442 267.957 158.417C267.995 158.399 268.031 158.378 268.067 158.358C268.091 158.373 268.114 158.389 268.139 158.404C268.181 158.346 268.238 158.277 268.305 158.2C268.492 158.05 268.655 157.86 268.811 157.648C269.311 157.11 269.877 156.476 269.88 156.13C269.88 156.127 269.879 156.123 269.879 156.12C273.369 151.69 277.368 147.505 281.452 143.401C281.422 143.431 285.883 138.71 285.193 141.32C284.861 142.579 281.579 144.975 280.254 146.308C277.323 149.273 273.88 153.03 271.019 156.662C270.634 156.834 270.091 157.678 269.697 158.307C269.48 158.626 269.277 158.947 269.078 159.227C279.215 161.83 287.1 156.587 292.477 150.488C292.483 150.48 292.489 150.473 292.495 150.466C294.131 148.781 295.807 147.107 297.901 145.775C301.394 143.552 305.136 143.16 309.255 142.066C320.487 139.083 325.263 127.767 326.78 119.371C328.491 109.899 320.12 95.3744 305.506 96.3082Z" fill="#086972"/>
<path fill-rule="evenodd" clip-rule="evenodd" d="M284.974 69.7825C274.306 78.4125 269.152 90.3829 265.071 101.636C260.513 114.205 257.502 126.968 257.387 140.035C257.311 148.621 257.011 157.26 257.656 165.836C257.884 168.881 258.275 171.932 258.896 174.945C258.947 175.193 260.337 181.92 261.666 180.353C262.422 179.461 260.241 173.374 260.077 172.36C259.15 166.65 258.935 160.897 258.98 155.146C259.054 145.676 258.695 136.255 259.93 126.82C260.114 125.411 260.26 123.931 260.69 122.553C261.147 121.088 260.565 121.728 262.054 121.147C263.501 120.584 265.288 120.664 266.789 119.957C272.743 117.151 275.788 109.942 278.159 105.213C280.87 99.8048 282.518 94.0373 283.834 88.3456C284.8 84.164 285.491 80.0077 285.882 75.772C286.005 74.437 286.013 73.0412 286.35 71.7285C286.441 71.3745 286.897 70.7483 286.881 70.4346C286.846 69.7709 286.33 69.3807 286.288 68.8232C285.841 69.1354 285.403 69.4554 284.974 69.7825Z" fill="#086972"/>
<path fill-rule="evenodd" clip-rule="evenodd" d="M226.805 184.767C226.805 199.039 241.69 210.609 260.052 210.609C278.413 210.609 293.298 199.039 293.298 184.767" fill="#086972"/>
<path fill-rule="evenodd" clip-rule="evenodd" d="M282.836 162.141C291.064 161.669 300.253 166.829 304.222 172.199C307.422 176.528 306.883 182.213 304.907 186.812C303.583 189.892 300.695 194.282 295.878 194.325C289.852 194.378 289.561 188.589 289.445 185.205C289.29 180.705 288.558 176.785 283.997 173.718C283.434 173.34 282.843 172.985 282.252 172.631C281.727 172.316 281.203 172.002 280.698 171.671C280.617 171.617 280.536 171.565 280.455 171.512C278.842 170.458 277.148 169.351 276.942 167.614C276.643 165.097 278.471 164.644 281.261 165.111C281.352 165.127 281.596 165.199 281.929 165.297C283.354 165.716 286.396 166.613 285.82 165.542C285.604 165.138 284.812 164.818 283.814 164.578C281.23 164.36 278.147 164.106 277.261 164.258C267.699 165.889 263.976 176.184 262.987 182.725C262.881 183.431 262.795 184.14 262.719 184.849H260.962C261.084 183.136 261.245 181.426 261.614 179.732C263.023 173.252 267.43 163.736 277.094 162.684C277.45 162.645 278.762 162.638 280.351 162.711C281.103 162.384 281.947 162.186 282.836 162.141Z" fill="#A7FF83"/>
</g>
<g opacity="0.5">
<path fill-rule="evenodd" clip-rule="evenodd" d="M78.7598 66.0008C80.6168 63.7586 84.0633 58.0639 86.6768 57.2627C88.3605 56.7467 87.8695 62.0847 87.8903 63.1026C87.9711 67.0407 87.5186 70.9538 86.9596 74.8586C85.952 81.9015 82.6584 88.1731 78.1407 94.1671C75.8162 97.2513 73.0891 100.373 69.3125 102.297C67.5744 103.184 65.4828 103.332 63.766 104.096C61.7663 104.985 62.8552 104.266 61.9541 106.03C60.7031 108.48 60.3027 111.64 59.7238 114.253C57.0656 126.251 50.6295 189.675 51.7454 201.879C51.8444 202.961 50.0635 203.22 49.9742 201.899C49.5018 194.897 53.5913 146.409 55.655 130.552C57.7183 114.694 59.8064 100.685 61.8998 95.1996C64.4399 88.5436 69.027 80.5397 72.8456 74.3328C74.6195 71.4496 76.5529 68.6651 78.7598 66.0008Z" fill="#A7FF83"/>
<path fill-rule="evenodd" clip-rule="evenodd" d="M92.5438 143.773C97.3762 140.769 102.607 146.438 98.2339 149.443C95.8166 151.103 93.2893 150.513 91.8668 149.129C90.9432 150.082 90.0788 151.079 89.248 151.921C86.7171 154.487 84.3255 157.113 82.0394 159.801C77.2906 165.386 73.2209 171.285 68.9657 177.077C64.7666 182.793 60.6011 188.539 56.7949 194.4C53.5706 199.366 49.273 205.207 48.1691 210.651C49.8439 199.106 56.1996 188.008 63.7679 177.83C71.2747 167.735 79.8895 156.711 91.5128 148.744C90.3298 147.271 90.2971 145.169 92.5438 143.773Z" fill="#212121"/>
<path fill-rule="evenodd" clip-rule="evenodd" d="M0.845478 115.615C3.54966 116.063 7.96831 121.243 10.1974 123.216C12.8465 125.562 15.2499 128.061 17.5154 130.681C22.3925 136.319 26.7542 142.313 30.4631 148.563C36.5095 158.753 41.3538 169.214 44.8692 180.31C47.0214 187.102 48.4147 194.143 49.2402 201.133C49.3962 202.452 51.0287 212.617 48.6764 212.891C46.5609 213.137 47.2145 205.173 47.1124 204.089C45.9586 191.865 42.5023 179.972 37.6951 168.451C36.6478 165.941 35.6751 162.867 34.0003 160.608C32.7944 158.982 33.9917 159.549 31.8723 158.933C30.0526 158.404 27.9792 158.534 26.1157 157.886C22.0674 156.48 18.826 153.751 15.9846 151.006C10.4628 145.671 6.08698 139.9 3.80606 133.064C2.54081 129.274 1.37808 125.461 0.732833 121.554C0.565921 120.544 -0.896297 115.327 0.845478 115.615Z" fill="#A7FF83"/>
<path fill-rule="evenodd" clip-rule="evenodd" d="M11.5169 29.4302C21.7031 44.3886 30.0737 60.8203 35.4784 77.463C38.7535 87.5467 41.0435 97.8942 43.3189 108.166C46.8419 124.072 50.1744 139.977 51.1223 156.165C52.076 172.447 53.9616 191.227 47.6656 206.909C50.8108 190.988 47.8163 174.04 47.286 158.019C47.0328 150.371 46.2988 142.798 45.3354 135.195C44.4008 127.819 42.8739 120.479 41.4523 113.161C40.7598 109.597 40.0324 106.039 39.2917 102.483C39.0703 101.421 38.9771 98.2729 38.1821 97.5481C37.3822 96.8184 33.3004 96.5209 32.0188 95.9854C29.4383 94.9073 27.0109 93.3757 24.8626 91.7573C20.7444 88.6547 17.1617 84.601 14.334 80.6049C7.79127 71.359 5.17551 60.0753 5.30773 49.367C5.3331 47.288 9.28172 24.9001 7.6959 24.5918C7.7914 24.4971 7.88168 24.3993 7.96684 24.2976C9.16744 25.9998 10.3456 27.7135 11.5169 29.4302Z" fill="#086972"/>
<path fill-rule="evenodd" clip-rule="evenodd" d="M121.459 83.3796C121.617 83.1876 122.64 81.8528 122.124 81.9382C123.173 81.7641 120.682 83.4103 123.295 82.4003C122.054 83.3927 122.771 84.6814 122.787 86.017C122.814 88.1855 122.386 90.3357 121.904 92.4574C121.141 95.8114 120.006 99.0722 118.358 102.192C114.767 108.99 108.668 115.534 101.428 119.784C97.8539 121.882 94.3513 122.597 90.275 123.563C87.7 124.173 87.4958 125.301 86.1289 127.417C83.2839 131.823 80.4892 136.214 77.9795 140.769C74.9833 146.209 72.0746 151.654 69.3308 157.189C60.0872 175.834 52.564 195.151 48.6132 215.142C48.5164 203.361 51.7349 191.228 55.7944 179.999C58.7517 171.819 62.6012 163.932 66.7075 156.126C67.7023 154.235 69.2101 151.802 69.633 149.714C69.9287 148.251 69.0241 146.844 68.61 145.303C66.9952 139.302 67.111 132.578 68.5287 126.545C70.0922 119.892 74.613 116.804 82.2608 115.862C85.0577 115.517 88.613 115.643 91.1774 114.633C93.9716 113.534 95.1242 109.919 96.7133 107.599C100.981 101.366 106.051 95.3886 111.874 90.137C113.486 88.6828 115.219 87.3409 117.059 86.0974C118.219 85.3127 120.669 84.3462 121.459 83.3796Z" fill="#086972"/>
<path fill-rule="evenodd" clip-rule="evenodd" d="M33.5171 204.563C33.3203 203.433 34.3544 202.419 35.7029 202.419H62.8446C64.1929 202.419 65.2269 203.433 65.0303 204.563L62.9325 216.608C62.2931 220.28 58.5721 223 54.1887 223H44.3587C39.9753 223 36.2544 220.28 35.6149 216.608L33.5171 204.563Z" fill="#212121"/>
</g>
<path fill-rule="evenodd" clip-rule="evenodd" d="M11.576 197.319C11.576 204.854 12.3411 210.963 22.6102 210.963C32.8793 210.963 33.6443 204.854 33.6443 197.319" fill="#071A52"/>
<path fill-rule="evenodd" clip-rule="evenodd" d="M25.6651 192.617C25.2887 193.123 24.9531 193.639 24.6566 194.162C24.6462 193.084 24.7229 191.997 24.9324 190.896C25.2906 189.009 25.8377 187.132 26.3517 185.258C26.7212 183.912 26.6978 181.493 28.0999 180.42C28.4844 180.188 28.5769 180.643 28.5769 180.84C28.5818 180.882 28.5759 180.035 28.2027 180.182C25.9844 181.073 25.2657 183.873 24.5555 185.275C23.5193 187.321 22.6378 189.413 22.2747 191.542C22.183 192.08 22.1331 192.617 22.1216 193.154C22.0461 193.011 21.9753 192.866 21.897 192.723C20.6167 190.389 18.8889 188.111 16.734 186.011C16.2035 185.494 9.53411 180.395 9.012 181.175C9.06351 181.289 9.17135 181.383 9.33581 181.457C9.34547 181.466 9.34574 181.461 9.34014 181.449C9.73181 181.941 10.8455 182.7 11.1924 183.131C12.0654 184.215 12.7439 185.366 13.4335 186.495C14.8903 188.881 16.2417 191.291 17.5517 193.706C17.8568 194.268 18.1747 194.827 18.4991 195.385C15.1554 191.636 10.6947 188.233 4.55432 186.285C6.65154 187.114 8.02653 188.674 9.44288 189.869C11.1511 191.31 12.9503 192.712 14.6617 194.152C16.6803 195.85 19.0555 197.638 20.9972 199.517C22.8779 202.586 24.7055 205.659 25.8337 208.885C25.3714 207.77 25.7974 206.23 25.7183 205.06C25.6555 204.129 25.5154 203.205 25.3236 202.283C25.5608 202.699 25.7653 203.115 25.8578 203.502C25.7733 202.853 25.6759 202.208 25.5712 201.566C25.8398 200.966 26.1035 200.405 26.2817 199.943C27.1947 197.575 28.2818 195.246 29.7623 192.977C31.1322 190.879 32.7035 188.806 34.4158 186.797C35.2145 185.861 36.0242 184.927 36.829 183.992C37.3555 183.38 37.8569 182.401 38.5901 181.814C33.8505 185.183 28.6722 188.575 25.6651 192.617Z" fill="#071A52"/>
<path fill-rule="evenodd" clip-rule="evenodd" d="M313.17 38.8551C311.812 35.3324 308.622 32.5751 305.31 30.0489C298.864 25.1307 295.396 22.0899 293.099 14.8955C291.748 10.6643 290.372 6.1806 286.087 3.11084C282.966 0.875358 277.595 -1.00282 273.422 0.597923C267.002 3.57653 265.278 9.68913 265.925 15.1626C266.728 21.9466 270.805 26.1296 278.637 28.6283C283.05 30.0355 285.983 31.8925 288.379 35.1282C290.295 37.7152 291.412 40.9551 293.82 43.3004C297.42 46.8068 301.925 48.3652 307.478 47.7828C302.277 40.3448 296.2 32.8367 288.871 26.574C288.184 25.9444 284.138 23.5345 284.954 22.4615C285.853 21.28 290.007 25.7182 289.978 25.6913C292.108 27.5918 294.079 29.6114 296.014 31.6504C296.009 31.6522 296.004 31.6536 295.998 31.6554C297.991 33.7479 299.968 35.8709 301.907 38.0204C302.691 38.9298 303.454 39.8506 304.185 40.7947C305.257 42.18 306.959 46.1116 308.714 46.9633C309.089 47.1453 309.437 47.2472 309.761 47.289C310.959 48.813 312.124 50.349 313.232 51.9031C316.125 55.9621 318.608 60.2477 319.748 64.8304C320.081 66.1681 319.845 71.1713 321.02 72.137C323.168 73.9032 322.538 70.5019 322.41 69.4753C321.343 60.9745 317.417 53.7323 311.716 46.5856C313.468 44.8078 313.721 40.2825 313.17 38.8551Z" fill="#071A52"/>
<path fill-rule="evenodd" clip-rule="evenodd" d="M239.617 42.9627C241.881 40.8893 247.323 40.5374 250.652 40.6762C254.771 40.8478 259.002 41.6274 262.92 42.5697C269.375 44.1217 275.648 46.9545 281.333 49.6962C282.018 50.0265 290.458 53.9719 289.711 54.6644C288.971 55.3504 280.685 50.6637 278.838 49.8559C274.897 48.1319 271.284 46.0928 266.94 44.954C262.442 43.7748 257.686 43.3078 252.956 43.3401C252.349 43.3443 250.369 43.0154 250.326 43.7135C250.285 44.3961 253.561 44.0399 254.138 44.0442C256.524 44.0612 258.925 44.2357 261.277 44.5571C265.685 45.1593 269.828 46.3721 273.602 48.2328C272.549 50.1363 270.024 51.0138 267.376 50.5374C265.087 50.1256 262.855 49.11 260.614 48.8165C259.07 48.6144 257.525 48.7348 256.028 49.0728C252.079 49.9646 249.802 51.792 245.46 50.5207C242.057 49.5245 236.365 45.9445 239.617 42.9627Z" fill="#071A52"/>
<path fill-rule="evenodd" clip-rule="evenodd" d="M229.88 9.552C224.853 9.26699 219.24 12.3856 216.814 15.631C214.86 18.2476 215.189 21.6836 216.396 24.4635C217.205 26.3246 218.969 28.9781 221.912 29.004C225.594 29.0363 225.771 25.5373 225.843 23.4917C225.937 20.7722 226.384 18.4031 229.171 16.5494C229.515 16.3207 229.876 16.1065 230.237 15.8923C230.557 15.7022 230.878 15.512 231.186 15.3118C231.236 15.2798 231.285 15.2478 231.335 15.2157C232.32 14.5788 233.355 13.9099 233.481 12.8601C233.664 11.3388 232.547 11.065 230.842 11.3476C230.787 11.3567 230.638 11.4003 230.435 11.4595C229.564 11.7133 227.706 12.2549 228.057 11.6075C228.189 11.3636 228.673 11.1702 229.283 11.0254C230.862 10.8934 232.745 10.7402 233.286 10.8317C239.128 11.8173 241.403 18.0398 242.007 21.9933C242.075 22.441 242.13 22.8902 242.177 23.3401H243.249C243.173 22.2835 243.075 21.2287 242.846 20.1839C241.985 16.2679 239.293 10.5162 233.388 9.88055C233.171 9.85687 232.369 9.85287 231.399 9.89666C230.939 9.69898 230.424 9.57947 229.88 9.552Z" fill="#071A52"/>
</g>
<defs>
<clipPath id="clip0_27_74">
<rect width="327" height="223" fill="white"/>
</clipPath>
</defs>
</svg>
