<svg width="33" height="32" viewBox="0 0 33 32" fill="none" xmlns="http://www.w3.org/2000/svg">
    <defs>
        <linearGradient id="paint0_linear_199_880" x1="16.5" y1="2" x2="16.5" y2="30" gradientUnits="userSpaceOnUse">
            <stop stop-color="#EFC977"/>
            <stop offset="1" stop-color="#E07256"/>
        </linearGradient>
    </defs>
    <path fill-rule="evenodd" clip-rule="evenodd" d="M15.5 5V2H17.5V5H15.5ZM21.134 5.97381L22.634 3.37573L24.3661 4.37573L22.8661 6.97381L21.134 5.97381ZM16.5 23C20.366 23 23.5 19.866 23.5 16C23.5 12.134 20.366 9 16.5 9C12.634 9 9.5 12.134 9.5 16C9.5 19.866 12.634 23 16.5 23ZM16.5 25C21.4706 25 25.5 20.9706 25.5 16C25.5 11.0294 21.4706 7 16.5 7C11.5294 7 7.5 11.0294 7.5 16C7.5 20.9706 11.5294 25 16.5 25ZM27.5 15H30.5V17H27.5V15ZM28.1243 8.13397L25.5263 9.63397L26.5263 11.366L29.1243 9.86603L28.1243 8.13397ZM8.63397 4.37573L10.134 6.97381L11.866 5.97381L10.366 3.37573L8.63397 4.37573ZM6.47375 11.366L3.87567 9.86603L4.87567 8.13397L7.47375 9.63397L6.47375 11.366ZM15.5 27V30H17.5V27H15.5ZM5.5 15H2.5V17H5.5V15ZM3.87562 22.134L6.47369 20.634L7.47369 22.366L4.87562 23.866L3.87562 22.134ZM10.134 25.0264L8.63404 27.6244L10.3661 28.6244L11.8661 26.0264L10.134 25.0264ZM22.634 28.6244L21.134 26.0264L22.866 25.0264L24.366 27.6244L22.634 28.6244ZM25.5263 22.366L28.1244 23.866L29.1244 22.134L26.5263 20.634L25.5263 22.366Z" fill="url(#paint0_linear_199_880)"/>

</svg>
