<svg width="32" height="32" viewBox="0 0 32 32" fill="none" xmlns="http://www.w3.org/2000/svg">
<path d="M16 22.5C18.7614 22.5 21 20.2614 21 17.5C21 14.7386 18.7614 12.5 16 12.5C13.2386 12.5 11 14.7386 11 17.5C11 20.2614 13.2386 22.5 16 22.5Z" stroke="#212121" stroke-width="2" stroke-linecap="round" stroke-linejoin="round"/>
<path d="M24.5 14.5C25.6647 14.4981 26.8137 14.7683 27.8554 15.2892C28.8972 15.81 29.8028 16.5671 30.5 17.5" stroke="#212121" stroke-width="2" stroke-linecap="round" stroke-linejoin="round"/>
<path d="M1.5 17.5C2.19725 16.5671 3.10285 15.81 4.14457 15.2892C5.1863 14.7683 6.33532 14.4981 7.5 14.5" stroke="#212121" stroke-width="2" stroke-linecap="round" stroke-linejoin="round"/>
<path d="M8.80005 27C9.45858 25.6513 10.4827 24.5148 11.7556 23.7197C13.0286 22.9247 14.4992 22.5032 16 22.5032C17.5009 22.5032 18.9715 22.9247 20.2445 23.7197C21.5174 24.5148 22.5415 25.6513 23.2 27" stroke="#212121" stroke-width="2" stroke-linecap="round" stroke-linejoin="round"/>
<path d="M7.50003 14.5C6.74083 14.5008 5.9971 14.2855 5.35572 13.8792C4.71434 13.473 4.20181 12.8927 3.87801 12.206C3.55422 11.5193 3.43253 10.7546 3.52718 10.0014C3.62182 9.24809 3.92887 8.5373 4.41247 7.95206C4.89607 7.36681 5.53624 6.93127 6.25817 6.69634C6.9801 6.4614 7.75399 6.43677 8.4894 6.62532C9.22481 6.81388 9.89138 7.20782 10.4112 7.76113C10.931 8.31444 11.2827 9.00427 11.425 9.75" stroke="#212121" stroke-width="2" stroke-linecap="round" stroke-linejoin="round"/>
<path d="M20.575 9.75C20.7173 9.00427 21.0689 8.31444 21.5888 7.76113C22.1086 7.20782 22.7752 6.81388 23.5106 6.62532C24.246 6.43677 25.0199 6.4614 25.7418 6.69634C26.4637 6.93127 27.1039 7.36681 27.5875 7.95206C28.0711 8.5373 28.3782 9.24809 28.4728 10.0014C28.5674 10.7546 28.4458 11.5193 28.122 12.206C27.7982 12.8927 27.2856 13.473 26.6443 13.8792C26.0029 14.2855 25.2591 14.5008 24.5 14.5" stroke="#212121" stroke-width="2" stroke-linecap="round" stroke-linejoin="round"/>
</svg>
