<svg width="33" height="32" viewBox="0 0 33 32" fill="none" xmlns="http://www.w3.org/2000/svg">
    <defs>
        <linearGradient id="paint0_linear_199_1032" x1="16.5" y1="7" x2="16.5" y2="26.0001" gradientUnits="userSpaceOnUse">
            <stop stop-color="#CED3EA"/>
            <stop offset="1" stop-color="#7E83A9"/>
        </linearGradient>
    </defs>
    <path fill-rule="evenodd" clip-rule="evenodd" d="M14.5001 10.9944L14.5001 10.9885L8.83939 10.9884L14.2693 9.02633L14.2688 9.02471C14.3727 8.9985 14.4804 8.98917 14.5875 8.99715C14.6016 8.99821 14.6157 8.99956 14.6298 9.00122L14.63 9.00125C14.7771 9.01857 14.9184 9.06835 15.0439 9.14699L15.0439 9.147C15.1694 9.22565 15.2759 9.33119 15.3556 9.456L15.3557 9.4562C15.4354 9.58102 15.4864 9.72199 15.5049 9.86892L15.505 9.8692C15.5235 10.0162 15.5092 10.1655 15.463 10.3062L15.463 10.3063C15.4168 10.4471 15.3398 10.5759 15.2378 10.6833L15.2377 10.6834C15.1356 10.7908 15.011 10.8742 14.8728 10.9275L14.8726 10.9276C14.8596 10.9326 14.8465 10.9373 14.8333 10.9418C14.726 10.9781 14.6133 10.9958 14.5001 10.9944ZM4.5 10.4296V12.9885L14.4796 12.9886C14.8586 12.9929 15.2355 12.9251 15.5903 12.7883L15.5905 12.7882C15.8605 12.684 16.1132 12.5415 16.3412 12.3657C16.4625 12.272 16.5768 12.169 16.683 12.0573L16.6831 12.0572C16.9886 11.7355 17.2189 11.3501 17.3573 10.9285L17.3573 10.9284C17.4956 10.5069 17.5386 10.0599 17.4831 9.61975L17.4831 9.61947C17.4275 9.1793 17.2749 8.75698 17.0362 8.38303L17.0361 8.38283C16.7974 8.00884 16.4785 7.6926 16.1026 7.45699L16.1026 7.45698C15.972 7.3751 15.8356 7.30367 15.6947 7.24314C15.4302 7.12949 15.15 7.05427 14.8625 7.02047L14.8623 7.02045C14.434 6.97012 14.0001 7.01297 13.5901 7.14589L13.5898 7.14504L13.5591 7.15612L13.5555 7.15734L13.5551 7.15748L13.5551 7.15757L4.5 10.4296ZM4.5 18.998V21.0525L17.7058 25.7506L17.7057 25.751C18.1836 25.9417 18.6977 26.0246 19.2113 25.9938C19.4088 25.982 19.6043 25.9534 19.7959 25.9088C20.1026 25.8373 20.3991 25.7245 20.6771 25.5728C21.1288 25.3264 21.5206 24.9833 21.8246 24.568C22.1286 24.1527 22.3372 23.6755 22.4357 23.1703C22.5342 22.6652 22.5201 22.1445 22.3943 21.6454C22.2686 21.1463 22.0344 20.6811 21.7083 20.283C21.5076 20.0379 21.2752 19.8219 21.0178 19.6404C20.857 19.527 20.6866 19.4271 20.508 19.3419C20.0443 19.1207 19.5376 19.0043 19.0239 19.0011V18.9981L4.5 18.998ZM19.0103 20.9983L10.3151 20.9982L18.4842 23.9045L18.4835 23.9065C18.6776 23.9782 18.8847 24.0089 19.0916 23.9964C19.3115 23.9833 19.5258 23.9217 19.7193 23.8162C19.9127 23.7106 20.0805 23.5637 20.2106 23.3859C20.3408 23.2081 20.4302 23.0037 20.4723 22.7874C20.5145 22.571 20.5085 22.3481 20.4546 22.1344C20.4008 21.9206 20.3005 21.7214 20.1608 21.5509C20.0212 21.3804 19.8457 21.2428 19.6468 21.1479C19.4483 21.0532 19.2312 21.0034 19.0112 21.002L19.0103 21.002L19.0103 21.0016L19.0103 20.9983ZM23.518 11.2481L23.5172 11.2486L22.5336 9.50716L22.5325 9.50515L22.5345 9.50404C23.067 9.2035 23.6613 9.02907 24.2718 8.99417C24.3603 8.98911 24.4489 8.987 24.5373 8.98783C25.059 8.99269 25.5757 9.09965 26.0579 9.3036C26.6218 9.54211 27.1234 9.90691 27.5241 10.3699C27.9248 10.8329 28.2139 11.3817 28.3692 11.974C28.5245 12.5664 28.5417 13.1865 28.4197 13.7866C28.2976 14.3867 28.0395 14.9508 27.6651 15.4353C27.3451 15.8497 26.9474 16.1964 26.4952 16.4568C26.4185 16.5009 26.3403 16.5425 26.2606 16.5816C25.7108 16.8512 25.1066 16.9909 24.4944 16.99V16.9897H4.5V14.9897H24.4972L24.4972 14.9876C24.803 14.988 25.1049 14.9182 25.3795 14.7836C25.6541 14.6489 25.8941 14.453 26.0811 14.2109C26.2681 13.9689 26.397 13.6871 26.458 13.3874C26.519 13.0876 26.5104 12.7778 26.4328 12.4819C26.3552 12.186 26.2108 11.9119 26.0106 11.6806C25.8105 11.4493 25.5599 11.2671 25.2782 11.1479C24.9966 11.0288 24.6913 10.9759 24.386 10.9934C24.081 11.0108 23.7841 11.098 23.518 11.2481Z" fill="url(#paint0_linear_199_1032)"/>

</svg>
